<?xml version="1.0" encoding="utf-8"?>
<!-- Generator: Adobe Illustrator 23.1.0, SVG Export Plug-In . SVG Version: 6.00 Build 0)  -->
<svg version="1.1" id="Слой_1" xmlns="http://www.w3.org/2000/svg" xmlns:xlink="http://www.w3.org/1999/xlink" x="0px" y="0px"
	 viewBox="0 0 720 991" style="enable-background:new 0 0 720 991;" xml:space="preserve">
<style type="text/css">
	.st0{fill:url(#SVGID_1_);}
	.st1{fill:url(#SVGID_2_);}
	.st2{fill:url(#SVGID_3_);}
	.st3{fill:#808080;stroke:#666666;stroke-width:5;stroke-miterlimit:10;}
	.st4{fill:url(#SVGID_4_);}
	.st5{fill:url(#SVGID_5_);}
	.st6{fill:#808080;stroke:#4D4D4D;stroke-width:5;stroke-miterlimit:10;}
	.st7{fill:#FFFFFF;stroke:#4D4D4D;stroke-width:5;stroke-miterlimit:10;}
	.st8{fill:#4D4D4D;stroke:#4D4D4D;stroke-width:5;stroke-miterlimit:10;}
	.st9{fill:#333333;stroke:#333333;stroke-width:5;stroke-miterlimit:10;}
	.st10{fill:#B3B3B3;stroke:#4D4D4D;stroke-width:0.75;stroke-linecap:round;stroke-linejoin:round;stroke-miterlimit:10;}
	.st11{fill:#808080;stroke:#4D4D4D;stroke-width:0.75;stroke-linecap:round;stroke-linejoin:round;stroke-miterlimit:10;}
	.st12{fill:#ED1C24;stroke:#C1272D;stroke-miterlimit:10;}
	.st13{fill:#04771C;stroke:#025102;stroke-miterlimit:10;}
	.st14{fill:#8F9E00;stroke:#627C05;stroke-miterlimit:10;}
	.st15{fill:#808080;stroke:#4D4D4D;stroke-width:0.75;stroke-miterlimit:10;}
	.st16{fill:#FF0000;stroke:#C1272D;stroke-width:0.75;stroke-miterlimit:10;}
	.st17{fill:#39B54A;stroke:#006837;stroke-width:0.75;stroke-miterlimit:10;}
	.st18{fill:#808080;stroke:#666666;stroke-width:0.75;stroke-miterlimit:10;}
	.st19{fill:none;stroke:#666666;stroke-width:0.75;stroke-miterlimit:10;}
	.st20{fill:#C1272D;stroke:#ED1C24;stroke-width:0.25;stroke-linejoin:round;stroke-miterlimit:10;}
	.st21{fill:#C1272D;stroke:#ED1C24;stroke-width:0.25;stroke-miterlimit:10;}
	.st22{fill:#009245;stroke:#006837;stroke-width:0.25;stroke-linejoin:round;stroke-miterlimit:10;}
	.st23{fill:#009245;stroke:#006837;stroke-width:0.25;stroke-miterlimit:10;}
	.st24{fill:#4D4D4D;stroke:#666666;stroke-width:0.75;stroke-miterlimit:10;}
	.st25{fill:#009245;stroke:#006837;stroke-width:0.75;stroke-linecap:round;stroke-linejoin:round;stroke-miterlimit:10;}
	.st26{fill:#FF0000;stroke:#C1272D;stroke-width:0.75;stroke-linecap:round;stroke-linejoin:round;stroke-miterlimit:10;}
	.st27{fill:none;stroke:#4D4D4D;stroke-width:10;stroke-linejoin:bevel;stroke-miterlimit:10;}
	.st28{fill:#B3B3B3;}
	.st29{stroke:#000000;stroke-miterlimit:10;}
	.st30{fill:#1A1A1A;stroke:#000000;stroke-miterlimit:10;}
	.st31{fill:#333333;stroke:#000000;stroke-miterlimit:10;}
	.st32{fill:none;stroke:#000000;stroke-miterlimit:10;}
	.st33{fill:#4D4D4D;stroke:#333333;stroke-width:5;stroke-miterlimit:10;}
	.st34{fill:url(#SVGID_6_);stroke:#666666;stroke-width:5;stroke-miterlimit:10;}
	.st35{fill:url(#SVGID_7_);stroke:#808080;stroke-width:4;stroke-miterlimit:10;}
	.st36{fill:#333333;stroke:#1A1A1A;stroke-linejoin:round;stroke-miterlimit:10;}
	.st37{fill:#4D4D4D;stroke:#333333;stroke-width:5;stroke-linecap:round;stroke-linejoin:round;stroke-miterlimit:10;}
	.st38{fill:#E6E6E6;stroke:#4D4D4D;stroke-width:5;stroke-linejoin:round;stroke-miterlimit:10;}
	.st39{fill:#E6E6E6;stroke:#4D4D4D;stroke-width:3;stroke-linejoin:round;stroke-miterlimit:10;}
	.st40{fill:#E6E6E6;stroke:#4D4D4D;stroke-width:2;stroke-linejoin:round;stroke-miterlimit:10;}
	.st41{fill:#1A1A1A;stroke:#1A1A1A;stroke-width:3;stroke-linejoin:round;stroke-miterlimit:10;}
	.st42{fill:none;stroke:#4D4D4D;stroke-width:5;stroke-linecap:round;stroke-linejoin:round;stroke-miterlimit:10;}
	.st43{fill:#333333;stroke:#333333;stroke-width:0.75;stroke-linecap:round;stroke-linejoin:round;stroke-miterlimit:10;}
	.st44{fill:#1A1A1A;stroke:#333333;stroke-width:3;stroke-miterlimit:10;}
	.st45{fill:#1A1A1A;stroke:#4D4D4D;stroke-width:3;stroke-linecap:round;stroke-linejoin:round;stroke-miterlimit:10;}
	.st46{fill:#4D4D4D;stroke:#808080;stroke-miterlimit:10;}
	.st47{fill:none;stroke:#4D4D4D;stroke-width:3;stroke-miterlimit:10;}
	.st48{fill:none;stroke:#4D4D4D;stroke-width:3;stroke-linecap:round;stroke-miterlimit:10;}
	.st49{fill:none;stroke:#333333;stroke-width:3;stroke-linecap:round;stroke-miterlimit:10;}
	.st50{fill:#1A1A1A;stroke:#1A1A1A;stroke-width:3;stroke-linecap:round;stroke-linejoin:round;stroke-miterlimit:10;}
	.st51{fill:url(#SVGID_8_);}
	.st52{fill:url(#SVGID_9_);}
	.st53{fill:#333333;}
	.st54{fill:#4D4D4D;}
	.st55{fill:#808080;stroke:#333333;stroke-width:0.75;stroke-linecap:round;stroke-linejoin:round;stroke-miterlimit:10;}
	.st56{fill:#808080;stroke:#333333;stroke-width:0.75;stroke-miterlimit:10;}
	.st57{fill:none;stroke:#333333;stroke-width:0.75;stroke-miterlimit:10;}
	.st58{fill:#4D4D4D;stroke:#333333;stroke-width:0.75;stroke-miterlimit:10;}
</style>
<g>
	
		<linearGradient id="SVGID_1_" gradientUnits="userSpaceOnUse" x1="-4.5417" y1="726.8286" x2="693.8693" y2="317.8782" gradientTransform="matrix(1 0 0 1 -3.427112e-02 -3.813802e-02)">
		<stop  offset="0.1754" style="stop-color:#444444"/>
		<stop  offset="0.3114" style="stop-color:#515151"/>
		<stop  offset="0.5634" style="stop-color:#747474"/>
		<stop  offset="0.6409" style="stop-color:#808080"/>
		<stop  offset="1" style="stop-color:#FFFFFF"/>
	</linearGradient>
	<path class="st0" d="M706,306.7c-0.4-2.9-0.9-5.8-1.4-8.7c0,0,0,0,0,0c-0.5-2.9-1.1-5.7-1.6-8.6c-0.3-1.4-0.6-2.8-0.9-4.3
		c-0.6-2.8-1.3-5.7-2-8.5c-0.3-1.4-0.7-2.8-1.1-4.2c-0.7-2.8-1.5-5.6-2.3-8.3c-0.8-2.8-1.6-5.5-2.5-8.3c-4.3-13.7-9.3-27-15.2-40
		c-1.2-2.6-2.4-5.1-3.6-7.7c-1.8-3.8-3.8-7.6-5.7-11.4c-1.3-2.5-2.7-5-4-7.4c-10.3-18.5-22.3-35.9-35.6-52.1
		c-1.8-2.2-3.6-4.3-5.4-6.4c-1.8-2.1-3.7-4.2-5.6-6.3c-3.8-4.2-7.6-8.2-11.6-12.2c-4-4-8-7.8-12.2-11.6c-2.1-1.9-4.2-3.7-6.3-5.6
		c-2.1-1.8-4.3-3.6-6.4-5.4c-16.2-13.4-33.6-25.3-52.1-35.6c-2.5-1.4-4.9-2.7-7.4-4c-3.8-2-7.5-3.9-11.4-5.7
		c-2.6-1.2-5.1-2.4-7.7-3.6c-12.9-5.8-26.3-10.9-40-15.2c-2.7-0.9-5.5-1.7-8.3-2.5c-2.8-0.8-5.6-1.5-8.4-2.3c-1.4-0.4-2.8-0.7-4.2-1
		c-2.8-0.7-5.6-1.3-8.5-2c-1.4-0.3-2.8-0.6-4.3-0.9c-2.9-0.6-5.7-1.1-8.6-1.6c0,0,0,0,0,0c-2.9-0.5-5.8-1-8.7-1.4
		c-17.4-2.6-35.2-4-53.3-4C166.7,10,10,166.7,10,360l0,450c0,55.2,44.8,100,100,100l500,0c55.2,0,100-44.8,100-100l0-450
		C710,341.9,708.6,324.1,706,306.7z M272,120c41.4,0,75,33.6,75,75c0,41.4-33.6,75-75,75s-75-33.6-75-75
		C197,153.6,230.6,120,272,120z M461,480c41.4,0,75,33.6,75,75c0,41.4-33.6,75-75,75c-41.4,0-75-33.6-75-75
		C386,513.6,419.6,480,461,480z"/>
	<linearGradient id="SVGID_2_" gradientUnits="userSpaceOnUse" x1="62.0696" y1="443.101" x2="612.671" y2="120.6996">
		<stop  offset="0.1754" style="stop-color:#444444"/>
		<stop  offset="0.3114" style="stop-color:#515151"/>
		<stop  offset="0.5634" style="stop-color:#747474"/>
		<stop  offset="0.6409" style="stop-color:#808080"/>
		<stop  offset="1" style="stop-color:#FFFFFF"/>
	</linearGradient>
	<path class="st1" d="M361,19h-2C172.4,19,21,174.4,21,361v12c112.9,5.7,226,8.5,339,8.5s226.1-2.8,339-8.5v-12
		C699,174.4,547.7,19,361,19z M272,270c-41.4,0-75-33.6-75-75c0-41.4,33.6-75,75-75s75,33.6,75,75C347,236.4,313.5,270,272,270z"/>
	<linearGradient id="SVGID_3_" gradientUnits="userSpaceOnUse" x1="94.7766" y1="806.6192" x2="686.694" y2="804.1476">
		<stop  offset="0.1754" style="stop-color:#1E1E1E"/>
		<stop  offset="0.3603" style="stop-color:#2B2B2B"/>
		<stop  offset="0.6122" style="stop-color:#444444"/>
		<stop  offset="1" style="stop-color:#565454"/>
	</linearGradient>
	<path class="st2" d="M600.5,910h-481c-55.2,0-100-44.8-100-100V710l0,0c226.8-13.3,454.2-13.3,681,0l0,0v100
		C700.5,865.3,655.8,910,600.5,910z"/>
	<path class="st3" d="M661.5,309.5c0,0-185,20-283-4l34-30c74,21,278,7,278,7L661.5,309.5z"/>
	<g>
		
			<linearGradient id="SVGID_4_" gradientUnits="userSpaceOnUse" x1="586.2762" y1="923.0662" x2="445.3375" y2="970.6019" gradientTransform="matrix(1 0 0 1 -3.427112e-02 -3.813802e-02)">
			<stop  offset="0.1754" style="stop-color:#424141"/>
			<stop  offset="0.3964" style="stop-color:#4F4E4E"/>
			<stop  offset="0.6409" style="stop-color:#636262"/>
			<stop  offset="1" style="stop-color:#9B9A9A"/>
		</linearGradient>
		<path class="st4" d="M565,991l-110,0c-11,0-20-9-20-20v-5c0-41.4,33.6-75,75-75h0c41.4,0,75,33.6,75,75v5C585,982,576,991,565,991
			z"/>
		
			<linearGradient id="SVGID_5_" gradientUnits="userSpaceOnUse" x1="286.2763" y1="923.0659" x2="145.3375" y2="970.6017" gradientTransform="matrix(1 0 0 1 -3.427112e-02 -3.813802e-02)">
			<stop  offset="0.1754" style="stop-color:#424141"/>
			<stop  offset="0.3964" style="stop-color:#4F4E4E"/>
			<stop  offset="0.6409" style="stop-color:#636262"/>
			<stop  offset="1" style="stop-color:#9B9A9A"/>
		</linearGradient>
		<path class="st5" d="M265,991l-110,0c-11,0-20-9-20-20v-5c0-41.4,33.6-75,75-75h0c41.4,0,75,33.6,75,75v5C285,982,276,991,265,991
			z"/>
		<g>
			<g>
				<image style="overflow:visible;" width="720" height="920" xlink:href="64D595F5.png" />
			</g>
		</g>
		<ellipse class="st6" cx="540" cy="148.5" rx="31.5" ry="22"/>
		<path class="st6" d="M547.5,145.5c0,0-5,43-38,55l-8-8c22-6,26-47,26-47S537.5,137.5,547.5,145.5z"/>
		<g>
			<g>
				
					<image style="overflow:visible;" width="680.5" height="18.5" xlink:href="64D595F7.png"  transform="matrix(1 0 0 1 19.7897 368.0363)"/>
			</g>
		</g>
		<g>
			<g>
				
					<image style="overflow:visible;" width="680.5" height="18.5" xlink:href="64D595F2.png"  transform="matrix(1 0 0 1 19.7897 695.03)"/>
			</g>
		</g>
		<path class="st7" d="M578.5,467.5"/>
		<path class="st7" d="M292.5,407.5"/>
		<path class="st8" d="M658.6,314c-199.1,20.3-283-5-283-5l3.8,68l13,0.2c84.6,1.5,169.3-0.6,253.7-6.3l15.3-1L658.6,314z"/>
		<path class="st9" d="M663.3,370.4l35.8-2.6l0.4-3.4c2.6-22.6-8.9-75.8-8.9-75.8l-29.9,27.5L663.3,370.4z"/>
		<polygon class="st10" points="412.5,282.5 414.5,283.5 416.5,282.5 416.5,280.5 414.5,281.5 412.5,280.5 		"/>
		<path class="st10" d="M414.3,279.7l-1.7,0.9l2,1l2-1l-1.7-0.9C414.6,279.6,414.4,279.6,414.3,279.7z"/>
		<line class="st10" x1="414.5" y1="281.5" x2="414.5" y2="283.5"/>
		<polygon class="st10" points="416.5,283.2 418.3,284 420,283.2 420,281.4 418.3,282.3 416.5,281.4 		"/>
		<path class="st10" d="M418.5,280.7c-0.2-0.1-0.3-0.1-0.5,0l-1.5,0.7l1.8,0.9l1.8-0.9L418.5,280.7z"/>
		<line class="st10" x1="418.3" y1="282.3" x2="418.3" y2="284"/>
		<polygon class="st10" points="419.5,284.2 421.3,285 423,284.2 423,282.4 421.3,283.3 419.5,282.4 		"/>
		<path class="st10" d="M421.5,281.7c-0.2-0.1-0.4-0.1-0.5,0l-1.5,0.7l1.8,0.9l1.8-0.9L421.5,281.7z"/>
		<line class="st10" x1="421.3" y1="283.3" x2="421.3" y2="285"/>
		<polygon class="st10" points="423.5,285.2 425.3,286 427,285.2 427,283.4 425.3,284.3 423.5,283.4 		"/>
		<path class="st10" d="M425.6,282.7c-0.2-0.1-0.4-0.1-0.6,0l-1.4,0.7l1.8,0.9l1.8-0.9L425.6,282.7z"/>
		<line class="st10" x1="425.3" y1="284.3" x2="425.3" y2="286"/>
		<polygon class="st10" points="427.5,286.2 429.3,287 431,286.2 431,284.4 429.3,285.3 427.5,284.4 		"/>
		<path class="st10" d="M429.5,283.7c-0.2-0.1-0.3-0.1-0.5,0l-1.5,0.7l1.8,0.9l1.8-0.9L429.5,283.7z"/>
		<line class="st10" x1="429.3" y1="285.3" x2="429.3" y2="287"/>
		<polygon class="st10" points="431.5,286.2 433.3,287 435,286.2 435,284.4 433.3,285.3 431.5,284.4 		"/>
		<path class="st10" d="M433.6,283.7c-0.2-0.1-0.4-0.1-0.6,0l-1.5,0.7l1.8,0.9l1.8-0.9L433.6,283.7z"/>
		<line class="st10" x1="433.3" y1="285.3" x2="433.3" y2="287"/>
		<polygon class="st10" points="435.5,287.2 437.3,288 439,287.2 439,285.4 437.3,286.3 435.5,285.4 		"/>
		<path class="st10" d="M437.6,284.7c-0.2-0.1-0.4-0.1-0.6,0l-1.5,0.7l1.8,0.9l1.8-0.9L437.6,284.7z"/>
		<line class="st10" x1="437.3" y1="286.3" x2="437.3" y2="288"/>
		<polygon class="st10" points="439.5,288.2 441.3,289 443,288.2 443,286.4 441.3,287.3 439.5,286.4 		"/>
		<path class="st10" d="M441.7,285.7c-0.2-0.1-0.5-0.1-0.7,0l-1.4,0.7l1.5,0.8c0.2,0.1,0.3,0.1,0.5,0l1.5-0.8L441.7,285.7z"/>
		<line class="st10" x1="441.3" y1="287.3" x2="441.3" y2="289"/>
		<polygon class="st10" points="443.5,288.2 445.3,289 447,288.2 447,286.4 445.3,287.3 443.5,286.4 		"/>
		<path class="st10" d="M445.7,285.7c-0.2-0.1-0.5-0.1-0.7,0l-1.4,0.7l1.5,0.8c0.2,0.1,0.3,0.1,0.5,0l1.5-0.8L445.7,285.7z"/>
		<line class="st10" x1="445.3" y1="287.3" x2="445.3" y2="289"/>
		<polygon class="st10" points="447.5,288.2 449.3,289 451,288.2 451,286.4 449.3,287.3 447.5,286.4 		"/>
		<path class="st10" d="M449.7,285.7c-0.2-0.1-0.5-0.1-0.7,0l-1.4,0.7l1.5,0.8c0.2,0.1,0.3,0.1,0.5,0l1.5-0.8L449.7,285.7z"/>
		<line class="st10" x1="449.3" y1="287.3" x2="449.3" y2="289"/>
		<polygon class="st10" points="409.5,285.5 411.5,286.5 413.5,285.5 413.5,283.5 411.5,284.5 409.5,283.5 		"/>
		<path class="st10" d="M411.3,282.7l-1.7,0.9l2,1l2-1l-1.7-0.9C411.6,282.6,411.4,282.6,411.3,282.7z"/>
		<line class="st10" x1="411.5" y1="284.5" x2="411.5" y2="286.5"/>
		<polygon class="st10" points="413.5,286.2 415.3,287 417,286.2 417,284.4 415.3,285.3 413.5,284.4 		"/>
		<path class="st10" d="M415.5,283.7c-0.2-0.1-0.3-0.1-0.5,0l-1.5,0.7l1.8,0.9l1.8-0.9L415.5,283.7z"/>
		<line class="st10" x1="415.3" y1="285.3" x2="415.3" y2="287"/>
		<polygon class="st10" points="416.5,287.2 418.3,288 420,287.2 420,285.4 418.3,286.3 416.5,285.4 		"/>
		<path class="st10" d="M418.5,284.7c-0.2-0.1-0.4-0.1-0.5,0l-1.5,0.7l1.8,0.9l1.8-0.9L418.5,284.7z"/>
		<line class="st10" x1="418.3" y1="286.3" x2="418.3" y2="288"/>
		<polygon class="st10" points="420.5,288.2 422.3,289 424,288.2 424,286.4 422.3,287.3 420.5,286.4 		"/>
		<path class="st10" d="M422.6,285.7c-0.2-0.1-0.4-0.1-0.6,0l-1.4,0.7l1.8,0.9l1.8-0.9L422.6,285.7z"/>
		<line class="st10" x1="422.3" y1="287.3" x2="422.3" y2="289"/>
		<polygon class="st10" points="424.5,289.2 426.3,290 428,289.2 428,287.4 426.3,288.3 424.5,287.4 		"/>
		<path class="st10" d="M426.5,286.7c-0.2-0.1-0.3-0.1-0.5,0l-1.5,0.7l1.8,0.9l1.8-0.9L426.5,286.7z"/>
		<line class="st10" x1="426.3" y1="288.3" x2="426.3" y2="290"/>
		<polygon class="st10" points="428.5,289.2 430.3,290 432,289.2 432,287.4 430.3,288.3 428.5,287.4 		"/>
		<path class="st10" d="M430.6,286.7c-0.2-0.1-0.4-0.1-0.6,0l-1.5,0.7l1.8,0.9l1.8-0.9L430.6,286.7z"/>
		<line class="st10" x1="430.3" y1="288.3" x2="430.3" y2="290"/>
		<polygon class="st10" points="432.5,290.2 434.3,291 436,290.2 436,288.4 434.3,289.3 432.5,288.4 		"/>
		<path class="st10" d="M434.6,287.7c-0.2-0.1-0.4-0.1-0.6,0l-1.5,0.7l1.8,0.9l1.8-0.9L434.6,287.7z"/>
		<line class="st10" x1="434.3" y1="289.3" x2="434.3" y2="291"/>
		<polygon class="st10" points="436.5,291.2 438.3,292 440,291.2 440,289.4 438.3,290.3 436.5,289.4 		"/>
		<path class="st10" d="M438.7,288.7c-0.2-0.1-0.5-0.1-0.7,0l-1.4,0.7l1.5,0.8c0.2,0.1,0.3,0.1,0.5,0l1.5-0.8L438.7,288.7z"/>
		<line class="st10" x1="438.3" y1="290.3" x2="438.3" y2="292"/>
		<polygon class="st10" points="440.5,291.2 442.3,292 444,291.2 444,289.4 442.3,290.3 440.5,289.4 		"/>
		<path class="st10" d="M442.7,288.7c-0.2-0.1-0.5-0.1-0.7,0l-1.4,0.7l1.5,0.8c0.2,0.1,0.3,0.1,0.5,0l1.5-0.8L442.7,288.7z"/>
		<line class="st10" x1="442.3" y1="290.3" x2="442.3" y2="292"/>
		<polygon class="st10" points="444.5,291.2 446.3,292 448,291.2 448,289.4 446.3,290.3 444.5,289.4 		"/>
		<path class="st10" d="M446.7,288.7c-0.2-0.1-0.5-0.1-0.7,0l-1.4,0.7l1.5,0.8c0.2,0.1,0.3,0.1,0.5,0l1.5-0.8L446.7,288.7z"/>
		<line class="st10" x1="446.3" y1="290.3" x2="446.3" y2="292"/>
		<polygon class="st10" points="408.5,288.5 410.5,289.5 412.5,288.5 412.5,286.5 410.5,287.5 408.5,286.5 		"/>
		<path class="st10" d="M410.3,285.7l-1.7,0.9l2,1l2-1l-1.7-0.9C410.6,285.6,410.4,285.6,410.3,285.7z"/>
		<line class="st10" x1="410.5" y1="287.5" x2="410.5" y2="289.5"/>
		<polygon class="st10" points="412.5,289.2 414.3,290 416,289.2 416,287.4 414.3,288.3 412.5,287.4 		"/>
		<path class="st10" d="M414.5,286.7c-0.2-0.1-0.3-0.1-0.5,0l-1.5,0.7l1.8,0.9l1.8-0.9L414.5,286.7z"/>
		<line class="st10" x1="414.3" y1="288.3" x2="414.3" y2="290"/>
		<polygon class="st10" points="415.5,290.2 417.3,291 419,290.2 419,288.4 417.3,289.3 415.5,288.4 		"/>
		<path class="st10" d="M417.5,287.7c-0.2-0.1-0.4-0.1-0.5,0l-1.5,0.7l1.8,0.9l1.8-0.9L417.5,287.7z"/>
		<line class="st10" x1="417.3" y1="289.3" x2="417.3" y2="291"/>
		<polygon class="st10" points="419.5,291.2 421.3,292 423,291.2 423,289.4 421.3,290.3 419.5,289.4 		"/>
		<path class="st10" d="M421.6,288.7c-0.2-0.1-0.4-0.1-0.6,0l-1.4,0.7l1.8,0.9l1.8-0.9L421.6,288.7z"/>
		<line class="st10" x1="421.3" y1="290.3" x2="421.3" y2="292"/>
		<polygon class="st10" points="575.9,292.8 578.1,293.3 579.8,291.9 579.4,289.9 577.7,291.3 575.5,290.8 		"/>
		<path class="st10" d="M577,289.6l-1.5,1.2l2.2,0.5l1.7-1.4l-1.9-0.5C577.4,289.4,577.2,289.5,577,289.6z"/>
		<line class="st10" x1="577.7" y1="291.3" x2="578.1" y2="293.3"/>
		<polygon class="st10" points="580,292.5 581.9,293 583.4,291.7 583,290 581.5,291.3 579.6,290.8 		"/>
		<path class="st10" d="M581.4,289.6c-0.2,0-0.4,0-0.5,0.1l-1.3,1.1l1.9,0.5l1.5-1.2L581.4,289.6z"/>
		<line class="st10" x1="581.5" y1="291.3" x2="581.9" y2="293"/>
		<polygon class="st10" points="583.1,292.8 585,293.3 586.5,292 586.2,290.3 584.6,291.6 582.7,291.1 		"/>
		<path class="st10" d="M584.5,289.9c-0.2,0-0.4,0-0.5,0.1l-1.3,1.1l1.9,0.5l1.5-1.2L584.5,289.9z"/>
		<line class="st10" x1="584.6" y1="291.6" x2="585" y2="293.3"/>
		<polygon class="st10" points="587.3,292.9 589.2,293.4 590.7,292.1 590.3,290.4 588.8,291.7 586.9,291.2 		"/>
		<path class="st10" d="M588.7,290.1c-0.2-0.1-0.5,0-0.6,0.1l-1.2,1l1.9,0.5l1.5-1.2L588.7,290.1z"/>
		<line class="st10" x1="588.8" y1="291.7" x2="589.2" y2="293.4"/>
		<polygon class="st10" points="573.7,296.3 575.8,296.9 577.6,295.5 577.1,293.5 575.4,294.9 573.2,294.4 		"/>
		<path class="st10" d="M574.7,293.2l-1.5,1.2l2.2,0.5l1.7-1.4l-1.9-0.5C575.1,293,574.9,293.1,574.7,293.2z"/>
		<line class="st10" x1="575.4" y1="294.9" x2="575.8" y2="296.9"/>
		<polygon class="st10" points="577.7,296.1 579.6,296.5 581.1,295.3 580.7,293.6 579.2,294.8 577.3,294.4 		"/>
		<path class="st10" d="M579.1,293.2c-0.2,0-0.4,0-0.5,0.1l-1.3,1.1l1.9,0.5l1.5-1.2L579.1,293.2z"/>
		<line class="st10" x1="579.2" y1="294.8" x2="579.6" y2="296.5"/>
		<polygon class="st10" points="580.9,296.4 582.8,296.9 584.3,295.6 583.9,293.9 582.4,295.2 580.5,294.7 		"/>
		<path class="st10" d="M582.3,293.5c-0.2,0-0.4,0-0.5,0.1l-1.3,1.1l1.9,0.5l1.5-1.2L582.3,293.5z"/>
		<line class="st10" x1="582.4" y1="295.2" x2="582.8" y2="296.9"/>
		<polygon class="st10" points="585,296.5 586.9,297 588.4,295.7 588,294 586.5,295.3 584.6,294.8 		"/>
		<path class="st10" d="M586.5,293.6c-0.2-0.1-0.5,0-0.6,0.1l-1.2,1l1.9,0.5l1.5-1.2L586.5,293.6z"/>
		<line class="st10" x1="586.5" y1="295.3" x2="586.9" y2="297"/>
		<polygon class="st10" points="573.4,299.5 575.5,300 577.3,298.6 576.8,296.7 575.1,298.1 572.9,297.5 		"/>
		<path class="st10" d="M574.4,296.3l-1.5,1.2l2.2,0.5l1.7-1.4l-1.9-0.5C574.8,296.2,574.6,296.2,574.4,296.3z"/>
		<line class="st10" x1="575.1" y1="298.1" x2="575.5" y2="300"/>
		<polygon class="st10" points="577.4,299.2 579.3,299.7 580.8,298.5 580.4,296.8 578.9,298 577,297.5 		"/>
		<path class="st10" d="M578.8,296.3c-0.2,0-0.4,0-0.5,0.1l-1.3,1.1l1.9,0.5l1.5-1.2L578.8,296.3z"/>
		<line class="st10" x1="578.9" y1="298" x2="579.3" y2="299.7"/>
		<polygon class="st10" points="580.5,299.5 582.4,300 584,298.8 583.6,297.1 582.1,298.3 580.2,297.8 		"/>
		<path class="st10" d="M582,296.7c-0.2,0-0.4,0-0.5,0.1l-1.3,1.1l1.9,0.5l1.5-1.2L582,296.7z"/>
		<line class="st10" x1="582.1" y1="298.3" x2="582.4" y2="300"/>
		<polygon class="st10" points="584.7,299.6 586.6,300.1 588.1,298.9 587.7,297.2 586.2,298.4 584.3,297.9 		"/>
		<path class="st10" d="M586.2,296.8c-0.2-0.1-0.5,0-0.6,0.1l-1.2,1l1.9,0.5l1.5-1.2L586.2,296.8z"/>
		<line class="st10" x1="586.2" y1="298.4" x2="586.6" y2="300.1"/>
		<polygon class="st10" points="572.9,303.8 575.1,304.3 576.8,302.9 576.4,300.9 574.7,302.3 572.5,301.8 		"/>
		<path class="st10" d="M574,300.6l-1.5,1.2l2.2,0.5l1.7-1.4l-1.9-0.5C574.4,300.4,574.2,300.5,574,300.6z"/>
		<line class="st10" x1="574.7" y1="302.3" x2="575.1" y2="304.3"/>
		<polygon class="st10" points="577,303.5 578.9,304 580.4,302.7 580,301 578.5,302.3 576.6,301.8 		"/>
		<path class="st10" d="M578.4,300.6c-0.2,0-0.4,0-0.5,0.1l-1.3,1.1l1.9,0.5l1.5-1.2L578.4,300.6z"/>
		<line class="st10" x1="578.5" y1="302.3" x2="578.9" y2="304"/>
		<polygon class="st10" points="580.1,303.8 582,304.3 583.5,303 583.2,301.3 581.6,302.6 579.7,302.1 		"/>
		<path class="st10" d="M581.5,300.9c-0.2,0-0.4,0-0.5,0.1l-1.3,1.1l1.9,0.5l1.5-1.2L581.5,300.9z"/>
		<line class="st10" x1="581.6" y1="302.6" x2="582" y2="304.3"/>
		<polygon class="st10" points="584.3,303.9 586.2,304.4 587.7,303.1 587.3,301.4 585.8,302.7 583.9,302.2 		"/>
		<path class="st10" d="M585.7,301.1c-0.2-0.1-0.5,0-0.6,0.1l-1.2,1l1.9,0.5l1.5-1.2L585.7,301.1z"/>
		<line class="st10" x1="585.8" y1="302.7" x2="586.2" y2="304.4"/>
		<polygon class="st10" points="570.7,307.3 572.8,307.9 574.6,306.5 574.1,304.5 572.4,305.9 570.2,305.4 		"/>
		<path class="st10" d="M571.7,304.2l-1.5,1.2l2.2,0.5l1.7-1.4l-1.9-0.5C572.1,304,571.9,304.1,571.7,304.2z"/>
		<line class="st10" x1="572.4" y1="305.9" x2="572.8" y2="307.9"/>
		<polygon class="st10" points="574.7,307.1 576.6,307.5 578.1,306.3 577.7,304.6 576.2,305.8 574.3,305.4 		"/>
		<path class="st10" d="M576.1,304.2c-0.2,0-0.4,0-0.5,0.1l-1.3,1.1l1.9,0.5l1.5-1.2L576.1,304.2z"/>
		<line class="st10" x1="576.2" y1="305.8" x2="576.6" y2="307.5"/>
		<polygon class="st10" points="577.9,307.4 579.8,307.9 581.3,306.6 580.9,304.9 579.4,306.2 577.5,305.7 		"/>
		<path class="st10" d="M579.3,304.5c-0.2,0-0.4,0-0.5,0.1l-1.3,1.1l1.9,0.5l1.5-1.2L579.3,304.5z"/>
		<line class="st10" x1="579.4" y1="306.2" x2="579.8" y2="307.9"/>
		<polygon class="st10" points="582,307.5 583.9,308 585.4,306.7 585,305 583.5,306.3 581.6,305.8 		"/>
		<path class="st10" d="M583.5,304.6c-0.2-0.1-0.5,0-0.6,0.1l-1.2,1l1.9,0.5l1.5-1.2L583.5,304.6z"/>
		<line class="st10" x1="583.5" y1="306.3" x2="583.9" y2="308"/>
		<polygon class="st10" points="570.4,310.5 572.5,311 574.3,309.6 573.8,307.7 572.1,309.1 569.9,308.5 		"/>
		<path class="st10" d="M571.4,307.3l-1.5,1.2l2.2,0.5l1.7-1.4l-1.9-0.5C571.8,307.2,571.6,307.2,571.4,307.3z"/>
		<line class="st10" x1="572.1" y1="309.1" x2="572.5" y2="311"/>
		<polygon class="st10" points="574.4,310.2 576.3,310.7 577.8,309.5 577.4,307.8 575.9,309 574,308.5 		"/>
		<path class="st10" d="M575.8,307.3c-0.2,0-0.4,0-0.5,0.1l-1.3,1.1l1.9,0.5l1.5-1.2L575.8,307.3z"/>
		<line class="st10" x1="575.9" y1="309" x2="576.3" y2="310.7"/>
		<polygon class="st10" points="577.5,310.5 579.4,311 581,309.8 580.6,308.1 579.1,309.3 577.2,308.8 		"/>
		<path class="st10" d="M579,307.7c-0.2,0-0.4,0-0.5,0.1l-1.3,1.1l1.9,0.5l1.5-1.2L579,307.7z"/>
		<line class="st10" x1="579.1" y1="309.3" x2="579.4" y2="311"/>
		<polygon class="st10" points="581.7,310.6 583.6,311.1 585.1,309.9 584.7,308.2 583.2,309.4 581.3,308.9 		"/>
		<path class="st10" d="M583.2,307.8c-0.2-0.1-0.5,0-0.6,0.1l-1.2,1l1.9,0.5l1.5-1.2L583.2,307.8z"/>
		<line class="st10" x1="583.2" y1="309.4" x2="583.6" y2="311.1"/>
		<polygon class="st10" points="594.9,293 597.1,293.4 598.7,292 598.2,290 596.5,291.5 594.4,291.1 		"/>
		<path class="st10" d="M595.8,289.8l-1.4,1.3l2.2,0.4l1.7-1.5l-1.9-0.4C596.1,289.6,595.9,289.7,595.8,289.8z"/>
		<line class="st10" x1="596.5" y1="291.5" x2="597.1" y2="293.4"/>
		<polygon class="st10" points="598.9,292.6 600.8,293 602.3,291.7 601.8,290 600.4,291.3 598.4,290.9 		"/>
		<path class="st10" d="M600.2,289.6c-0.2,0-0.4,0-0.5,0.1l-1.3,1.1l1.9,0.4l1.5-1.3L600.2,289.6z"/>
		<line class="st10" x1="600.4" y1="291.3" x2="600.8" y2="293"/>
		<polygon class="st10" points="602.1,292.8 604,293.2 605.4,291.9 605,290.2 603.5,291.5 601.6,291.1 		"/>
		<path class="st10" d="M603.3,289.8c-0.2,0-0.4,0-0.5,0.1l-1.2,1.1l1.9,0.4l1.5-1.3L603.3,289.8z"/>
		<line class="st10" x1="603.5" y1="291.5" x2="604" y2="293.2"/>
		<polygon class="st10" points="606.2,292.7 608.1,293.1 609.6,291.8 609.1,290.1 607.6,291.4 605.7,291 		"/>
		<path class="st10" d="M607.5,289.8c-0.2,0-0.5,0-0.6,0.2l-1.2,1.1l1.9,0.4l1.5-1.3L607.5,289.8z"/>
		<line class="st10" x1="607.6" y1="291.4" x2="608.1" y2="293.1"/>
		<polygon class="st10" points="592.7,296.7 594.9,297.1 596.6,295.6 596.1,293.7 594.4,295.2 592.2,294.7 		"/>
		<path class="st10" d="M593.7,293.5l-1.4,1.3l2.2,0.4l1.7-1.5l-1.9-0.4C594,293.3,593.8,293.3,593.7,293.5z"/>
		<line class="st10" x1="594.4" y1="295.2" x2="594.9" y2="297.1"/>
		<polygon class="st10" points="596.8,296.2 598.7,296.6 600.2,295.3 599.7,293.6 598.2,294.9 596.3,294.6 		"/>
		<path class="st10" d="M598.1,293.3c-0.2,0-0.4,0-0.5,0.1l-1.3,1.1l1.9,0.4l1.5-1.3L598.1,293.3z"/>
		<line class="st10" x1="598.2" y1="294.9" x2="598.7" y2="296.6"/>
		<polygon class="st10" points="599.9,296.4 601.8,296.8 603.3,295.5 602.9,293.8 601.4,295.1 599.5,294.7 		"/>
		<path class="st10" d="M601.2,293.5c-0.2,0-0.4,0-0.5,0.1l-1.2,1.1l1.9,0.4l1.5-1.3L601.2,293.5z"/>
		<line class="st10" x1="601.4" y1="295.1" x2="601.8" y2="296.8"/>
		<polygon class="st10" points="604.1,296.4 606,296.8 607.4,295.5 607,293.8 605.5,295.1 603.6,294.7 		"/>
		<path class="st10" d="M605.4,293.4c-0.2,0-0.5,0-0.6,0.2l-1.2,1.1l1.9,0.4l1.5-1.3L605.4,293.4z"/>
		<line class="st10" x1="605.5" y1="295.1" x2="606" y2="296.8"/>
		<polygon class="st10" points="592.6,299.8 594.7,300.3 596.4,298.8 595.9,296.9 594.2,298.3 592,297.9 		"/>
		<path class="st10" d="M593.5,296.6l-1.4,1.3l2.2,0.4l1.7-1.5l-1.9-0.4C593.8,296.4,593.6,296.5,593.5,296.6z"/>
		<line class="st10" x1="594.2" y1="298.3" x2="594.7" y2="300.3"/>
		<polygon class="st10" points="596.6,299.4 598.5,299.8 600,298.5 599.5,296.8 598,298.1 596.1,297.7 		"/>
		<path class="st10" d="M597.9,296.5c-0.2,0-0.4,0-0.5,0.1l-1.3,1.1l1.9,0.4l1.5-1.3L597.9,296.5z"/>
		<line class="st10" x1="598" y1="298.1" x2="598.5" y2="299.8"/>
		<polygon class="st10" points="599.7,299.6 601.7,300 603.1,298.7 602.7,297 601.2,298.3 599.3,297.9 		"/>
		<path class="st10" d="M601,296.7c-0.2,0-0.4,0-0.5,0.1l-1.2,1.1l1.9,0.4l1.5-1.3L601,296.7z"/>
		<line class="st10" x1="601.2" y1="298.3" x2="601.7" y2="300"/>
		<polygon class="st10" points="603.9,299.5 605.8,299.9 607.2,298.6 606.8,296.9 605.3,298.2 603.4,297.8 		"/>
		<path class="st10" d="M605.2,296.6c-0.2,0-0.5,0-0.6,0.2l-1.2,1.1l1.9,0.4l1.5-1.3L605.2,296.6z"/>
		<line class="st10" x1="605.3" y1="298.2" x2="605.8" y2="299.9"/>
		<polygon class="st10" points="591.8,303.3 594,303.7 595.6,302.1 594.9,300.2 593.4,301.8 591.1,301.4 		"/>
		<path class="st10" d="M592.5,300.1l-1.4,1.4l2.2,0.3l1.6-1.6l-1.9-0.3C592.8,299.9,592.7,299.9,592.5,300.1z"/>
		<line class="st10" x1="593.4" y1="301.8" x2="594" y2="303.7"/>
		<polygon class="st10" points="595.8,302.7 597.7,303 599.1,301.6 598.5,299.9 597.2,301.3 595.2,301 		"/>
		<path class="st10" d="M596.9,299.7c-0.2,0-0.4,0-0.5,0.2l-1.2,1.2l1.9,0.3l1.4-1.4L596.9,299.7z"/>
		<line class="st10" x1="597.2" y1="301.3" x2="597.7" y2="303"/>
		<polygon class="st10" points="598.9,302.7 600.9,303 602.3,301.6 601.7,299.9 600.3,301.3 598.4,301 		"/>
		<path class="st10" d="M600.1,299.7c-0.2,0-0.4,0-0.5,0.2l-1.2,1.2l1.9,0.3l1.4-1.4L600.1,299.7z"/>
		<line class="st10" x1="600.3" y1="301.3" x2="600.9" y2="303"/>
		<polygon class="st10" points="603,302.4 605,302.7 606.4,301.3 605.8,299.6 604.4,301 602.5,300.7 		"/>
		<path class="st10" d="M604.2,299.4c-0.2,0-0.5,0-0.6,0.2l-1.1,1.1l1.9,0.3l1.4-1.4L604.2,299.4z"/>
		<line class="st10" x1="604.4" y1="301" x2="605" y2="302.7"/>
		<polygon class="st10" points="589.9,307.1 592.1,307.5 593.7,305.9 593,304 591.5,305.6 589.2,305.2 		"/>
		<path class="st10" d="M590.6,303.9l-1.4,1.4l2.2,0.3l1.6-1.6l-1.9-0.3C590.9,303.7,590.7,303.7,590.6,303.9z"/>
		<line class="st10" x1="591.5" y1="305.6" x2="592.1" y2="307.5"/>
		<polygon class="st10" points="593.9,306.5 595.8,306.8 597.2,305.4 596.6,303.7 595.2,305.1 593.3,304.8 		"/>
		<path class="st10" d="M595,303.5c-0.2,0-0.4,0-0.5,0.2l-1.2,1.2l1.9,0.3l1.4-1.4L595,303.5z"/>
		<line class="st10" x1="595.2" y1="305.1" x2="595.8" y2="306.8"/>
		<polygon class="st10" points="597,306.5 599,306.8 600.3,305.4 599.8,303.7 598.4,305.1 596.5,304.8 		"/>
		<path class="st10" d="M598.1,303.5c-0.2,0-0.4,0-0.5,0.2l-1.2,1.2l1.9,0.3l1.4-1.4L598.1,303.5z"/>
		<line class="st10" x1="598.4" y1="305.1" x2="599" y2="306.8"/>
		<polygon class="st10" points="601.1,306.2 603.1,306.5 604.5,305.1 603.9,303.4 602.5,304.8 600.6,304.5 		"/>
		<path class="st10" d="M602.3,303.2c-0.2,0-0.5,0-0.6,0.2l-1.1,1.1l1.9,0.3l1.4-1.4L602.3,303.2z"/>
		<line class="st10" x1="602.5" y1="304.8" x2="603.1" y2="306.5"/>
		<polygon class="st10" points="589.9,310.3 592.1,310.6 593.7,309 593,307.1 591.4,308.7 589.2,308.4 		"/>
		<path class="st10" d="M590.6,307l-1.4,1.4l2.2,0.3l1.6-1.6l-1.9-0.3C590.9,306.8,590.7,306.9,590.6,307z"/>
		<line class="st10" x1="591.4" y1="308.7" x2="592.1" y2="310.6"/>
		<polygon class="st10" points="593.9,309.6 595.8,309.9 597.2,308.5 596.6,306.9 595.2,308.3 593.3,308 		"/>
		<path class="st10" d="M595,306.6c-0.2,0-0.4,0-0.5,0.2l-1.2,1.2l1.9,0.3l1.4-1.4L595,306.6z"/>
		<line class="st10" x1="595.2" y1="308.3" x2="595.8" y2="309.9"/>
		<polygon class="st10" points="597,309.6 598.9,309.9 600.3,308.5 599.8,306.9 598.4,308.3 596.5,308 		"/>
		<path class="st10" d="M598.1,306.6c-0.2,0-0.4,0-0.5,0.2l-1.2,1.2l1.9,0.3l1.4-1.4L598.1,306.6z"/>
		<line class="st10" x1="598.4" y1="308.3" x2="598.9" y2="309.9"/>
		<polygon class="st10" points="601.1,309.3 603.1,309.6 604.4,308.2 603.9,306.6 602.5,308 600.6,307.7 		"/>
		<path class="st10" d="M602.3,306.3c-0.2,0-0.5,0-0.6,0.2l-1.1,1.1l1.9,0.3l1.4-1.4L602.3,306.3z"/>
		<line class="st10" x1="602.5" y1="308" x2="603.1" y2="309.6"/>
		<polygon class="st10" points="423.5,292.2 425.3,293 427,292.2 427,290.4 425.3,291.3 423.5,290.4 		"/>
		<path class="st10" d="M425.5,289.7c-0.2-0.1-0.3-0.1-0.5,0l-1.5,0.7l1.8,0.9l1.8-0.9L425.5,289.7z"/>
		<line class="st10" x1="425.3" y1="291.3" x2="425.3" y2="293"/>
		<polygon class="st10" points="427.5,292.2 429.3,293 431,292.2 431,290.4 429.3,291.3 427.5,290.4 		"/>
		<path class="st10" d="M429.6,289.7c-0.2-0.1-0.4-0.1-0.6,0l-1.5,0.7l1.8,0.9l1.8-0.9L429.6,289.7z"/>
		<line class="st10" x1="429.3" y1="291.3" x2="429.3" y2="293"/>
		<polygon class="st10" points="431.5,293.2 433.3,294 435,293.2 435,291.4 433.3,292.3 431.5,291.4 		"/>
		<path class="st10" d="M433.6,290.7c-0.2-0.1-0.4-0.1-0.6,0l-1.5,0.7l1.8,0.9l1.8-0.9L433.6,290.7z"/>
		<line class="st10" x1="433.3" y1="292.3" x2="433.3" y2="294"/>
		<polygon class="st10" points="435.5,294.2 437.3,295 439,294.2 439,292.4 437.3,293.3 435.5,292.4 		"/>
		<path class="st10" d="M437.7,291.7c-0.2-0.1-0.5-0.1-0.7,0l-1.4,0.7l1.5,0.8c0.2,0.1,0.3,0.1,0.5,0l1.5-0.8L437.7,291.7z"/>
		<line class="st10" x1="437.3" y1="293.3" x2="437.3" y2="295"/>
		<polygon class="st10" points="439.5,294.2 441.3,295 443,294.2 443,292.4 441.3,293.3 439.5,292.4 		"/>
		<path class="st10" d="M441.7,291.7c-0.2-0.1-0.5-0.1-0.7,0l-1.4,0.7l1.5,0.8c0.2,0.1,0.3,0.1,0.5,0l1.5-0.8L441.7,291.7z"/>
		<line class="st10" x1="441.3" y1="293.3" x2="441.3" y2="295"/>
		<polygon class="st10" points="443.5,294.2 445.3,295 447,294.2 447,292.4 445.3,293.3 443.5,292.4 		"/>
		<path class="st10" d="M445.7,291.7c-0.2-0.1-0.5-0.1-0.7,0l-1.4,0.7l1.5,0.8c0.2,0.1,0.3,0.1,0.5,0l1.5-0.8L445.7,291.7z"/>
		<line class="st10" x1="445.3" y1="293.3" x2="445.3" y2="295"/>
		<polygon class="st10" points="405.5,291.5 407.5,292.5 409.5,291.5 409.5,289.5 407.5,290.5 405.5,289.5 		"/>
		<path class="st10" d="M407.3,288.7l-1.7,0.9l2,1l2-1l-1.7-0.9C407.6,288.6,407.4,288.6,407.3,288.7z"/>
		<line class="st10" x1="407.5" y1="290.5" x2="407.5" y2="292.5"/>
		<polygon class="st10" points="409.5,292.2 411.3,293 413,292.2 413,290.4 411.3,291.3 409.5,290.4 		"/>
		<path class="st10" d="M411.5,289.7c-0.2-0.1-0.3-0.1-0.5,0l-1.5,0.7l1.8,0.9l1.8-0.9L411.5,289.7z"/>
		<line class="st10" x1="411.3" y1="291.3" x2="411.3" y2="293"/>
		<polygon class="st10" points="412.5,293.2 414.3,294 416,293.2 416,291.4 414.3,292.3 412.5,291.4 		"/>
		<path class="st10" d="M414.5,290.7c-0.2-0.1-0.4-0.1-0.5,0l-1.5,0.7l1.8,0.9l1.8-0.9L414.5,290.7z"/>
		<line class="st10" x1="414.3" y1="292.3" x2="414.3" y2="294"/>
		<polygon class="st10" points="416.5,294.2 418.3,295 420,294.2 420,292.4 418.3,293.3 416.5,292.4 		"/>
		<path class="st10" d="M418.6,291.7c-0.2-0.1-0.4-0.1-0.6,0l-1.4,0.7l1.8,0.9l1.8-0.9L418.6,291.7z"/>
		<line class="st10" x1="418.3" y1="293.3" x2="418.3" y2="295"/>
		<polygon class="st10" points="420.5,295.2 422.3,296 424,295.2 424,293.4 422.3,294.3 420.5,293.4 		"/>
		<path class="st10" d="M422.5,292.7c-0.2-0.1-0.3-0.1-0.5,0l-1.5,0.7l1.8,0.9l1.8-0.9L422.5,292.7z"/>
		<line class="st10" x1="422.3" y1="294.3" x2="422.3" y2="296"/>
		<polygon class="st10" points="424.5,295.2 426.3,296 428,295.2 428,293.4 426.3,294.3 424.5,293.4 		"/>
		<path class="st10" d="M426.6,292.7c-0.2-0.1-0.4-0.1-0.6,0l-1.5,0.7l1.8,0.9l1.8-0.9L426.6,292.7z"/>
		<line class="st10" x1="426.3" y1="294.3" x2="426.3" y2="296"/>
		<polygon class="st10" points="428.5,296.2 430.3,297 432,296.2 432,294.4 430.3,295.3 428.5,294.4 		"/>
		<path class="st10" d="M430.6,293.7c-0.2-0.1-0.4-0.1-0.6,0l-1.5,0.7l1.8,0.9l1.8-0.9L430.6,293.7z"/>
		<line class="st10" x1="430.3" y1="295.3" x2="430.3" y2="297"/>
		<polygon class="st10" points="432.5,297.2 434.3,298 436,297.2 436,295.4 434.3,296.3 432.5,295.4 		"/>
		<path class="st10" d="M434.7,294.7c-0.2-0.1-0.5-0.1-0.7,0l-1.4,0.7l1.5,0.8c0.2,0.1,0.3,0.1,0.5,0l1.5-0.8L434.7,294.7z"/>
		<line class="st10" x1="434.3" y1="296.3" x2="434.3" y2="298"/>
		<polygon class="st10" points="436.5,297.2 438.3,298 440,297.2 440,295.4 438.3,296.3 436.5,295.4 		"/>
		<path class="st10" d="M438.7,294.7c-0.2-0.1-0.5-0.1-0.7,0l-1.4,0.7l1.5,0.8c0.2,0.1,0.3,0.1,0.5,0l1.5-0.8L438.7,294.7z"/>
		<line class="st10" x1="438.3" y1="296.3" x2="438.3" y2="298"/>
		<polygon class="st10" points="440.5,297.2 442.3,298 444,297.2 444,295.4 442.3,296.3 440.5,295.4 		"/>
		<path class="st10" d="M442.7,294.7c-0.2-0.1-0.5-0.1-0.7,0l-1.4,0.7l1.5,0.8c0.2,0.1,0.3,0.1,0.5,0l1.5-0.8L442.7,294.7z"/>
		<line class="st10" x1="442.3" y1="296.3" x2="442.3" y2="298"/>
		<polygon class="st10" points="402.5,294.5 404.5,295.5 406.5,294.5 406.5,292.5 404.5,293.5 402.5,292.5 		"/>
		<path class="st10" d="M404.3,291.7l-1.7,0.9l2,1l2-1l-1.7-0.9C404.6,291.6,404.4,291.6,404.3,291.7z"/>
		<line class="st10" x1="404.5" y1="293.5" x2="404.5" y2="295.5"/>
		<polygon class="st10" points="406.5,295.2 408.3,296 410,295.2 410,293.4 408.3,294.3 406.5,293.4 		"/>
		<path class="st10" d="M408.5,292.7c-0.2-0.1-0.3-0.1-0.5,0l-1.5,0.7l1.8,0.9l1.8-0.9L408.5,292.7z"/>
		<line class="st10" x1="408.3" y1="294.3" x2="408.3" y2="296"/>
		<polygon class="st10" points="409.5,296.2 411.3,297 413,296.2 413,294.4 411.3,295.3 409.5,294.4 		"/>
		<path class="st10" d="M411.5,293.7c-0.2-0.1-0.4-0.1-0.5,0l-1.5,0.7l1.8,0.9l1.8-0.9L411.5,293.7z"/>
		<line class="st10" x1="411.3" y1="295.3" x2="411.3" y2="297"/>
		<polygon class="st10" points="413.5,297.2 415.3,298 417,297.2 417,295.4 415.3,296.3 413.5,295.4 		"/>
		<path class="st10" d="M415.6,294.7c-0.2-0.1-0.4-0.1-0.6,0l-1.4,0.7l1.8,0.9l1.8-0.9L415.6,294.7z"/>
		<line class="st10" x1="415.3" y1="296.3" x2="415.3" y2="298"/>
		<polygon class="st10" points="417.5,298.2 419.3,299 421,298.2 421,296.4 419.3,297.3 417.5,296.4 		"/>
		<path class="st10" d="M419.5,295.7c-0.2-0.1-0.3-0.1-0.5,0l-1.5,0.7l1.8,0.9l1.8-0.9L419.5,295.7z"/>
		<line class="st10" x1="419.3" y1="297.3" x2="419.3" y2="299"/>
		<polygon class="st10" points="421.5,298.2 423.3,299 425,298.2 425,296.4 423.3,297.3 421.5,296.4 		"/>
		<path class="st10" d="M423.6,295.7c-0.2-0.1-0.4-0.1-0.6,0l-1.5,0.7l1.8,0.9l1.8-0.9L423.6,295.7z"/>
		<line class="st10" x1="423.3" y1="297.3" x2="423.3" y2="299"/>
		<polygon class="st10" points="425.5,299.2 427.3,300 429,299.2 429,297.4 427.3,298.3 425.5,297.4 		"/>
		<path class="st10" d="M427.6,296.7c-0.2-0.1-0.4-0.1-0.6,0l-1.5,0.7l1.8,0.9l1.8-0.9L427.6,296.7z"/>
		<line class="st10" x1="427.3" y1="298.3" x2="427.3" y2="300"/>
		<polygon class="st10" points="429.5,300.2 431.3,301 433,300.2 433,298.4 431.3,299.3 429.5,298.4 		"/>
		<path class="st10" d="M431.7,297.7c-0.2-0.1-0.5-0.1-0.7,0l-1.4,0.7l1.5,0.8c0.2,0.1,0.3,0.1,0.5,0l1.5-0.8L431.7,297.7z"/>
		<line class="st10" x1="431.3" y1="299.3" x2="431.3" y2="301"/>
		<polygon class="st10" points="433.5,300.2 435.3,301 437,300.2 437,298.4 435.3,299.3 433.5,298.4 		"/>
		<path class="st10" d="M435.7,297.7c-0.2-0.1-0.5-0.1-0.7,0l-1.4,0.7l1.5,0.8c0.2,0.1,0.3,0.1,0.5,0l1.5-0.8L435.7,297.7z"/>
		<line class="st10" x1="435.3" y1="299.3" x2="435.3" y2="301"/>
		<polygon class="st10" points="437.5,300.2 439.3,301 441,300.2 441,298.4 439.3,299.3 437.5,298.4 		"/>
		<path class="st10" d="M439.7,297.7c-0.2-0.1-0.5-0.1-0.7,0l-1.4,0.7l1.5,0.8c0.2,0.1,0.3,0.1,0.5,0l1.5-0.8L439.7,297.7z"/>
		<line class="st10" x1="439.3" y1="299.3" x2="439.3" y2="301"/>
		<polygon class="st10" points="399.5,297.5 401.5,298.5 403.5,297.5 403.5,295.5 401.5,296.5 399.5,295.5 		"/>
		<path class="st10" d="M401.3,294.7l-1.7,0.9l2,1l2-1l-1.7-0.9C401.6,294.6,401.4,294.6,401.3,294.7z"/>
		<line class="st10" x1="401.5" y1="296.5" x2="401.5" y2="298.5"/>
		<polygon class="st10" points="403.5,298.2 405.3,299 407,298.2 407,296.4 405.3,297.3 403.5,296.4 		"/>
		<path class="st10" d="M405.5,295.7c-0.2-0.1-0.3-0.1-0.5,0l-1.5,0.7l1.8,0.9l1.8-0.9L405.5,295.7z"/>
		<line class="st10" x1="405.3" y1="297.3" x2="405.3" y2="299"/>
		<polygon class="st10" points="406.5,299.2 408.3,300 410,299.2 410,297.4 408.3,298.3 406.5,297.4 		"/>
		<path class="st10" d="M408.5,296.7c-0.2-0.1-0.4-0.1-0.5,0l-1.5,0.7l1.8,0.9l1.8-0.9L408.5,296.7z"/>
		<line class="st10" x1="408.3" y1="298.3" x2="408.3" y2="300"/>
		<polygon class="st10" points="410.5,300.2 412.3,301 414,300.2 414,298.4 412.3,299.3 410.5,298.4 		"/>
		<path class="st10" d="M412.6,297.7c-0.2-0.1-0.4-0.1-0.6,0l-1.4,0.7l1.8,0.9l1.8-0.9L412.6,297.7z"/>
		<line class="st10" x1="412.3" y1="299.3" x2="412.3" y2="301"/>
		<polygon class="st10" points="414.5,301.2 416.3,302 418,301.2 418,299.4 416.3,300.3 414.5,299.4 		"/>
		<path class="st10" d="M416.5,298.7c-0.2-0.1-0.3-0.1-0.5,0l-1.5,0.7l1.8,0.9l1.8-0.9L416.5,298.7z"/>
		<line class="st10" x1="416.3" y1="300.3" x2="416.3" y2="302"/>
		<polygon class="st10" points="418.5,301.2 420.3,302 422,301.2 422,299.4 420.3,300.3 418.5,299.4 		"/>
		<path class="st10" d="M420.6,298.7c-0.2-0.1-0.4-0.1-0.6,0l-1.5,0.7l1.8,0.9l1.8-0.9L420.6,298.7z"/>
		<line class="st10" x1="420.3" y1="300.3" x2="420.3" y2="302"/>
		<polygon class="st10" points="422.5,302.2 424.3,303 426,302.2 426,300.4 424.3,301.3 422.5,300.4 		"/>
		<path class="st10" d="M424.6,299.7c-0.2-0.1-0.4-0.1-0.6,0l-1.5,0.7l1.8,0.9l1.8-0.9L424.6,299.7z"/>
		<line class="st10" x1="424.3" y1="301.3" x2="424.3" y2="303"/>
		<polygon class="st10" points="426.5,303.2 428.3,304 430,303.2 430,301.4 428.3,302.3 426.5,301.4 		"/>
		<path class="st10" d="M428.7,300.7c-0.2-0.1-0.5-0.1-0.7,0l-1.4,0.7l1.5,0.8c0.2,0.1,0.3,0.1,0.5,0l1.5-0.8L428.7,300.7z"/>
		<line class="st10" x1="428.3" y1="302.3" x2="428.3" y2="304"/>
		<polygon class="st10" points="430.5,303.2 432.3,304 434,303.2 434,301.4 432.3,302.3 430.5,301.4 		"/>
		<path class="st10" d="M432.7,300.7c-0.2-0.1-0.5-0.1-0.7,0l-1.4,0.7l1.5,0.8c0.2,0.1,0.3,0.1,0.5,0l1.5-0.8L432.7,300.7z"/>
		<line class="st10" x1="432.3" y1="302.3" x2="432.3" y2="304"/>
		<polygon class="st10" points="434.5,303.2 436.3,304 438,303.2 438,301.4 436.3,302.3 434.5,301.4 		"/>
		<path class="st10" d="M436.7,300.7c-0.2-0.1-0.5-0.1-0.7,0l-1.4,0.7l1.5,0.8c0.2,0.1,0.3,0.1,0.5,0l1.5-0.8L436.7,300.7z"/>
		<line class="st10" x1="436.3" y1="302.3" x2="436.3" y2="304"/>
		<polygon class="st10" points="398.5,300.5 400.5,301.5 402.5,300.5 402.5,298.5 400.5,299.5 398.5,298.5 		"/>
		<path class="st10" d="M400.3,297.7l-1.7,0.9l2,1l2-1l-1.7-0.9C400.6,297.6,400.4,297.6,400.3,297.7z"/>
		<line class="st10" x1="400.5" y1="299.5" x2="400.5" y2="301.5"/>
		<polygon class="st10" points="402.5,301.2 404.3,302 406,301.2 406,299.4 404.3,300.3 402.5,299.4 		"/>
		<path class="st10" d="M404.5,298.7c-0.2-0.1-0.3-0.1-0.5,0l-1.5,0.7l1.8,0.9l1.8-0.9L404.5,298.7z"/>
		<line class="st10" x1="404.3" y1="300.3" x2="404.3" y2="302"/>
		<polygon class="st10" points="405.5,302.2 407.3,303 409,302.2 409,300.4 407.3,301.3 405.5,300.4 		"/>
		<path class="st10" d="M407.5,299.7c-0.2-0.1-0.4-0.1-0.5,0l-1.5,0.7l1.8,0.9l1.8-0.9L407.5,299.7z"/>
		<line class="st10" x1="407.3" y1="301.3" x2="407.3" y2="303"/>
		<polygon class="st10" points="409.5,303.2 411.3,304 413,303.2 413,301.4 411.3,302.3 409.5,301.4 		"/>
		<path class="st10" d="M411.6,300.7c-0.2-0.1-0.4-0.1-0.6,0l-1.4,0.7l1.8,0.9l1.8-0.9L411.6,300.7z"/>
		<line class="st10" x1="411.3" y1="302.3" x2="411.3" y2="304"/>
		<polygon class="st10" points="413.5,304.2 415.3,305 417,304.2 417,302.4 415.3,303.3 413.5,302.4 		"/>
		<path class="st10" d="M415.5,301.7c-0.2-0.1-0.3-0.1-0.5,0l-1.5,0.7l1.8,0.9l1.8-0.9L415.5,301.7z"/>
		<line class="st10" x1="415.3" y1="303.3" x2="415.3" y2="305"/>
		<polygon class="st10" points="417.5,304.2 419.3,305 421,304.2 421,302.4 419.3,303.3 417.5,302.4 		"/>
		<path class="st10" d="M419.6,301.7c-0.2-0.1-0.4-0.1-0.6,0l-1.5,0.7l1.8,0.9l1.8-0.9L419.6,301.7z"/>
		<line class="st10" x1="419.3" y1="303.3" x2="419.3" y2="305"/>
		<polygon class="st10" points="421.5,305.2 423.3,306 425,305.2 425,303.4 423.3,304.3 421.5,303.4 		"/>
		<path class="st10" d="M423.6,302.7c-0.2-0.1-0.4-0.1-0.6,0l-1.5,0.7l1.8,0.9l1.8-0.9L423.6,302.7z"/>
		<line class="st10" x1="423.3" y1="304.3" x2="423.3" y2="306"/>
		<polygon class="st10" points="425.5,306.2 427.3,307 429,306.2 429,304.4 427.3,305.3 425.5,304.4 		"/>
		<path class="st10" d="M427.7,303.7c-0.2-0.1-0.5-0.1-0.7,0l-1.4,0.7l1.5,0.8c0.2,0.1,0.3,0.1,0.5,0l1.5-0.8L427.7,303.7z"/>
		<line class="st10" x1="427.3" y1="305.3" x2="427.3" y2="307"/>
		<polygon class="st10" points="429.5,306.2 431.3,307 433,306.2 433,304.4 431.3,305.3 429.5,304.4 		"/>
		<path class="st10" d="M431.7,303.7c-0.2-0.1-0.5-0.1-0.7,0l-1.4,0.7l1.5,0.8c0.2,0.1,0.3,0.1,0.5,0l1.5-0.8L431.7,303.7z"/>
		<line class="st10" x1="431.3" y1="305.3" x2="431.3" y2="307"/>
		<polygon class="st10" points="433.5,306.2 435.3,307 437,306.2 437,304.4 435.3,305.3 433.5,304.4 		"/>
		<path class="st10" d="M435.7,303.7c-0.2-0.1-0.5-0.1-0.7,0l-1.4,0.7l1.5,0.8c0.2,0.1,0.3,0.1,0.5,0l1.5-0.8L435.7,303.7z"/>
		<line class="st10" x1="435.3" y1="305.3" x2="435.3" y2="307"/>
		<polygon class="st10" points="395.5,302.5 397.5,303.5 399.5,302.5 399.5,300.5 397.5,301.5 395.5,300.5 		"/>
		<path class="st10" d="M397.3,299.7l-1.7,0.9l2,1l2-1l-1.7-0.9C397.6,299.6,397.4,299.6,397.3,299.7z"/>
		<line class="st10" x1="397.5" y1="301.5" x2="397.5" y2="303.5"/>
		<polygon class="st10" points="399.5,303.2 401.3,304 403,303.2 403,301.4 401.3,302.3 399.5,301.4 		"/>
		<path class="st10" d="M401.5,300.7c-0.2-0.1-0.3-0.1-0.5,0l-1.5,0.7l1.8,0.9l1.8-0.9L401.5,300.7z"/>
		<line class="st10" x1="401.3" y1="302.3" x2="401.3" y2="304"/>
		<polygon class="st10" points="402.5,304.2 404.3,305 406,304.2 406,302.4 404.3,303.3 402.5,302.4 		"/>
		<path class="st10" d="M404.5,301.7c-0.2-0.1-0.4-0.1-0.5,0l-1.5,0.7l1.8,0.9l1.8-0.9L404.5,301.7z"/>
		<line class="st10" x1="404.3" y1="303.3" x2="404.3" y2="305"/>
		<polygon class="st10" points="406.5,305.2 408.3,306 410,305.2 410,303.4 408.3,304.3 406.5,303.4 		"/>
		<path class="st10" d="M408.6,302.7c-0.2-0.1-0.4-0.1-0.6,0l-1.4,0.7l1.8,0.9l1.8-0.9L408.6,302.7z"/>
		<line class="st10" x1="408.3" y1="304.3" x2="408.3" y2="306"/>
		<polygon class="st10" points="410.5,306.2 412.3,307 414,306.2 414,304.4 412.3,305.3 410.5,304.4 		"/>
		<path class="st10" d="M412.5,303.7c-0.2-0.1-0.3-0.1-0.5,0l-1.5,0.7l1.8,0.9l1.8-0.9L412.5,303.7z"/>
		<line class="st10" x1="412.3" y1="305.3" x2="412.3" y2="307"/>
		<polygon class="st10" points="414.5,306.2 416.3,307 418,306.2 418,304.4 416.3,305.3 414.5,304.4 		"/>
		<path class="st10" d="M416.6,303.7c-0.2-0.1-0.4-0.1-0.6,0l-1.5,0.7l1.8,0.9l1.8-0.9L416.6,303.7z"/>
		<line class="st10" x1="416.3" y1="305.3" x2="416.3" y2="307"/>
		<polygon class="st10" points="418.5,307.2 420.3,308 422,307.2 422,305.4 420.3,306.3 418.5,305.4 		"/>
		<path class="st10" d="M420.6,304.7c-0.2-0.1-0.4-0.1-0.6,0l-1.5,0.7l1.8,0.9l1.8-0.9L420.6,304.7z"/>
		<line class="st10" x1="420.3" y1="306.3" x2="420.3" y2="308"/>
		<polygon class="st10" points="422.5,308.2 424.3,309 426,308.2 426,306.4 424.3,307.3 422.5,306.4 		"/>
		<path class="st10" d="M424.7,305.7c-0.2-0.1-0.5-0.1-0.7,0l-1.4,0.7l1.5,0.8c0.2,0.1,0.3,0.1,0.5,0l1.5-0.8L424.7,305.7z"/>
		<line class="st10" x1="424.3" y1="307.3" x2="424.3" y2="309"/>
		<polygon class="st10" points="426.5,308.2 428.3,309 430,308.2 430,306.4 428.3,307.3 426.5,306.4 		"/>
		<path class="st10" d="M428.7,305.7c-0.2-0.1-0.5-0.1-0.7,0l-1.4,0.7l1.5,0.8c0.2,0.1,0.3,0.1,0.5,0l1.5-0.8L428.7,305.7z"/>
		<line class="st10" x1="428.3" y1="307.3" x2="428.3" y2="309"/>
		<polygon class="st10" points="430.5,308.2 432.3,309 434,308.2 434,306.4 432.3,307.3 430.5,306.4 		"/>
		<path class="st10" d="M432.7,305.7c-0.2-0.1-0.5-0.1-0.7,0l-1.4,0.7l1.5,0.8c0.2,0.1,0.3,0.1,0.5,0l1.5-0.8L432.7,305.7z"/>
		<line class="st10" x1="432.3" y1="307.3" x2="432.3" y2="309"/>
		<polygon class="st11" points="489.5,290.5 491.5,291.5 493.5,290.5 493.5,288.5 491.5,289.5 489.5,288.5 		"/>
		<polygon class="st11" points="491.5,287.5 489.5,288.5 491.5,289.5 493.5,288.5 		"/>
		<line class="st11" x1="491.5" y1="289.5" x2="491.5" y2="291.5"/>
		<polygon class="st11" points="488.5,293.5 490.5,294.5 492.5,293.5 492.5,291.5 490.5,292.5 488.5,291.5 		"/>
		<polygon class="st11" points="490.5,290.5 488.5,291.5 490.5,292.5 492.5,291.5 		"/>
		<line class="st11" x1="490.5" y1="292.5" x2="490.5" y2="294.5"/>
		<polygon class="st11" points="485.4,305.3 487.4,306.2 489.4,305 489.2,303 487.3,304.2 485.2,303.3 		"/>
		<polygon class="st11" points="487.1,302.2 485.2,303.3 487.3,304.2 489.2,303 		"/>
		<line class="st11" x1="487.3" y1="304.2" x2="487.4" y2="306.2"/>
		<polygon class="st11" points="484.7,309.4 486.8,310.2 488.7,309.1 488.5,307.1 486.6,308.2 484.5,307.4 		"/>
		<polygon class="st11" points="486.4,306.2 484.5,307.4 486.6,308.2 488.5,307.1 		"/>
		<line class="st11" x1="486.6" y1="308.2" x2="486.8" y2="310.2"/>
		<polygon class="st11" points="488.8,310.1 490.8,310.9 492.8,309.7 492.6,307.7 490.7,308.9 488.6,308.1 		"/>
		<polygon class="st11" points="490.5,306.9 488.6,308.1 490.7,308.9 492.6,307.7 		"/>
		<line class="st11" x1="490.7" y1="308.9" x2="490.8" y2="310.9"/>
		<polygon class="st11" points="493.8,310.6 495.9,311.5 497.8,310.3 497.7,308.3 495.7,309.5 493.7,308.6 		"/>
		<polygon class="st11" points="495.6,307.5 493.7,308.6 495.7,309.5 497.7,308.3 		"/>
		<line class="st11" x1="495.7" y1="309.5" x2="495.9" y2="311.5"/>
		<polygon class="st11" points="497.9,311.3 500,312.1 501.9,311 501.7,309 499.8,310.1 497.7,309.3 		"/>
		<polygon class="st11" points="499.6,308.2 497.7,309.3 499.8,310.1 501.7,309 		"/>
		<line class="st11" x1="499.8" y1="310.1" x2="500" y2="312.1"/>
		<polygon class="st11" points="501.9,311 504,311.8 505.9,310.6 505.7,308.6 503.8,309.8 501.7,309 		"/>
		<polygon class="st11" points="503.6,307.8 501.7,309 503.8,309.8 505.7,308.6 		"/>
		<line class="st11" x1="503.8" y1="309.8" x2="504" y2="311.8"/>
		<polygon class="st11" points="489.4,306 491.5,306.8 493.4,305.7 493.3,303.7 491.3,304.8 489.3,304 		"/>
		<polygon class="st11" points="491.2,302.8 489.3,304 491.3,304.8 493.3,303.7 		"/>
		<line class="st11" x1="491.3" y1="304.8" x2="491.5" y2="306.8"/>
		<polygon class="st11" points="493.5,306.7 495.6,307.5 497.5,306.3 497.3,304.3 495.4,305.5 493.3,304.7 		"/>
		<polygon class="st11" points="495.2,303.5 493.3,304.7 495.4,305.5 497.3,304.3 		"/>
		<line class="st11" x1="495.4" y1="305.5" x2="495.6" y2="307.5"/>
		<polygon class="st11" points="497.6,307.3 499.6,308.2 501.6,307 501.4,305 499.5,306.2 497.4,305.3 		"/>
		<polygon class="st11" points="499.3,304.2 497.4,305.3 499.5,306.2 501.4,305 		"/>
		<line class="st11" x1="499.5" y1="306.2" x2="499.6" y2="308.2"/>
		<polygon class="st11" points="501.6,307 503.6,307.8 505.5,306.7 505.4,304.7 503.5,305.8 501.4,305 		"/>
		<polygon class="st11" points="503.3,303.8 501.4,305 503.5,305.8 505.4,304.7 		"/>
		<line class="st11" x1="503.5" y1="305.8" x2="503.6" y2="307.8"/>
		<polygon class="st11" points="492.5,294.5 494.5,295.5 496.5,294.5 496.5,292.5 494.5,293.5 492.5,292.5 		"/>
		<polygon class="st11" points="494.5,291.5 492.5,292.5 494.5,293.5 496.5,292.5 		"/>
		<line class="st11" x1="494.5" y1="293.5" x2="494.5" y2="295.5"/>
		<polygon class="st11" points="496.5,295.5 498.5,296.5 500.5,295.5 500.5,293.5 498.5,294.5 496.5,293.5 		"/>
		<polygon class="st11" points="498.5,292.5 496.5,293.5 498.5,294.5 500.5,293.5 		"/>
		<line class="st11" x1="498.5" y1="294.5" x2="498.5" y2="296.5"/>
		<polygon class="st11" points="501.5,295.5 503.5,296.5 505.5,295.5 505.5,293.5 503.5,294.5 501.5,293.5 		"/>
		<polygon class="st11" points="503.5,292.5 501.5,293.5 503.5,294.5 505.5,293.5 		"/>
		<line class="st11" x1="503.5" y1="294.5" x2="503.5" y2="296.5"/>
		<polygon class="st11" points="505.5,296.5 507.5,297.5 509.5,296.5 509.5,294.5 507.5,295.5 505.5,294.5 		"/>
		<polygon class="st11" points="507.5,293.5 505.5,294.5 507.5,295.5 509.5,294.5 		"/>
		<line class="st11" x1="507.5" y1="295.5" x2="507.5" y2="297.5"/>
		<polygon class="st11" points="493.5,290.5 495.5,291.5 497.5,290.5 497.5,288.5 495.5,289.5 493.5,288.5 		"/>
		<polygon class="st11" points="495.5,287.5 493.5,288.5 495.5,289.5 497.5,288.5 		"/>
		<line class="st11" x1="495.5" y1="289.5" x2="495.5" y2="291.5"/>
		<polygon class="st11" points="497.5,291.5 499.5,292.5 501.5,291.5 501.5,289.5 499.5,290.5 497.5,289.5 		"/>
		<polygon class="st11" points="499.5,288.5 497.5,289.5 499.5,290.5 501.5,289.5 		"/>
		<line class="st11" x1="499.5" y1="290.5" x2="499.5" y2="292.5"/>
		<polygon class="st11" points="501.5,291.5 503.5,292.5 505.5,291.5 505.5,289.5 503.5,290.5 501.5,289.5 		"/>
		<polygon class="st11" points="503.5,288.5 501.5,289.5 503.5,290.5 505.5,289.5 		"/>
		<line class="st11" x1="503.5" y1="290.5" x2="503.5" y2="292.5"/>
		<polygon class="st11" points="505.5,292.5 507.5,293.5 509.5,292.5 509.5,290.5 507.5,291.5 505.5,290.5 		"/>
		<polygon class="st11" points="507.5,289.5 505.5,290.5 507.5,291.5 509.5,290.5 		"/>
		<line class="st11" x1="507.5" y1="291.5" x2="507.5" y2="293.5"/>
		<path class="st12" d="M463.4,286.2l-0.1,4.6c0,0,0,0.4-0.4,0.7c-0.4,0.4-6.7,1.5-6.3-1.9V287"/>
		<path class="st12" d="M457.3,285c0,0,1.5-1.5,4.8,0s-1.1,2.6-1.1,2.6s-4.5,0.4-4.5-0.7S456.9,285.4,457.3,285z"/>
		<path class="st12" d="M460.4,291.2l-0.1,4.6c0,0,0,0.4-0.4,0.7c-0.4,0.4-6.7,1.5-6.3-1.9V292"/>
		<path class="st12" d="M454.3,290c0,0,1.5-1.5,4.8,0s-1.1,2.6-1.1,2.6s-4.5,0.4-4.5-0.7S453.9,290.4,454.3,290z"/>
		<path class="st12" d="M456.4,296.2l-0.1,4.6c0,0,0,0.4-0.4,0.7c-0.4,0.4-6.7,1.5-6.3-1.9V297"/>
		<path class="st12" d="M450.3,295c0,0,1.5-1.5,4.8,0s-1.1,2.6-1.1,2.6s-4.5,0.4-4.5-0.7S449.9,295.4,450.3,295z"/>
		<path class="st12" d="M452.4,302.2l-0.1,4.6c0,0,0,0.4-0.4,0.7c-0.4,0.4-6.7,1.5-6.3-1.9V303"/>
		<path class="st12" d="M446.3,301c0,0,1.5-1.5,4.8,0s-1.1,2.6-1.1,2.6s-4.5,0.4-4.5-0.7S445.9,301.4,446.3,301z"/>
		<path class="st13" d="M472.4,289.2l-0.1,4.6c0,0,0,0.4-0.4,0.7c-0.4,0.4-6.7,1.5-6.3-1.9V290"/>
		<path class="st13" d="M466.3,288c0,0,1.5-1.5,4.8,0s-1.1,2.6-1.1,2.6s-4.5,0.4-4.5-0.7S465.9,288.4,466.3,288z"/>
		<path class="st13" d="M469.4,294.2l-0.1,4.6c0,0,0,0.4-0.4,0.7c-0.4,0.4-6.7,1.5-6.3-1.9V295"/>
		<path class="st13" d="M463.3,293c0,0,1.5-1.5,4.8,0s-1.1,2.6-1.1,2.6s-4.5,0.4-4.5-0.7S462.9,293.4,463.3,293z"/>
		<path class="st13" d="M465.4,299.2l-0.1,4.6c0,0,0,0.4-0.4,0.7c-0.4,0.4-6.7,1.5-6.3-1.9V300"/>
		<path class="st13" d="M459.3,298c0,0,1.5-1.5,4.8,0s-1.1,2.6-1.1,2.6s-4.5,0.4-4.5-0.7S458.9,298.4,459.3,298z"/>
		<path class="st13" d="M461.4,305.2l-0.1,4.6c0,0,0,0.4-0.4,0.7c-0.4,0.4-6.7,1.5-6.3-1.9V306"/>
		<path class="st13" d="M455.3,304c0,0,1.5-1.5,4.8,0s-1.1,2.6-1.1,2.6s-4.5,0.4-4.5-0.7S454.9,304.4,455.3,304z"/>
		<path class="st14" d="M483.4,288.2l-0.1,4.6c0,0,0,0.4-0.4,0.7c-0.4,0.4-6.7,1.5-6.3-1.9V289"/>
		<path class="st14" d="M477.3,287c0,0,1.5-1.5,4.8,0s-1.1,2.6-1.1,2.6s-4.5,0.4-4.5-0.7S476.9,287.4,477.3,287z"/>
		<path class="st14" d="M480.4,293.2l-0.1,4.6c0,0,0,0.4-0.4,0.7c-0.4,0.4-6.7,1.5-6.3-1.9V294"/>
		<path class="st14" d="M474.3,292c0,0,1.5-1.5,4.8,0s-1.1,2.6-1.1,2.6s-4.5,0.4-4.5-0.7S473.9,292.4,474.3,292z"/>
		<path class="st14" d="M476.4,298.2l-0.1,4.6c0,0,0,0.4-0.4,0.7c-0.4,0.4-6.7,1.5-6.3-1.9V299"/>
		<path class="st14" d="M470.3,297c0,0,1.5-1.5,4.8,0s-1.1,2.6-1.1,2.6s-4.5,0.4-4.5-0.7S469.9,297.4,470.3,297z"/>
		<path class="st14" d="M472.4,304.2l-0.1,4.6c0,0,0,0.4-0.4,0.7c-0.4,0.4-6.7,1.5-6.3-1.9V305"/>
		<path class="st14" d="M466.3,303c0,0,1.5-1.5,4.8,0s-1.1,2.6-1.1,2.6s-4.5,0.4-4.5-0.7S465.9,303.4,466.3,303z"/>
		<polygon class="st15" points="486.5,298.5 488.5,296.5 490.5,297.5 489.5,299.5 		"/>
		<line class="st15" x1="488.5" y1="298.5" x2="487.5" y2="295.5"/>
		<circle class="st16" cx="487" cy="294" r="1.5"/>
		<polygon class="st15" points="491.5,299.5 493.5,297.5 495.5,298.5 494.5,300.5 		"/>
		<line class="st15" x1="493.5" y1="299.5" x2="492.5" y2="296.5"/>
		<circle class="st16" cx="492" cy="295" r="1.5"/>
		<polygon class="st15" points="496.5,300.5 498.5,298.5 500.5,299.5 499.5,301.5 		"/>
		<line class="st15" x1="498.5" y1="300.5" x2="497.5" y2="297.5"/>
		<circle class="st16" cx="497" cy="296" r="1.5"/>
		<polygon class="st15" points="502.5,301.5 504.5,299.5 506.5,300.5 505.5,302.5 		"/>
		<line class="st15" x1="504.5" y1="301.5" x2="503.5" y2="298.5"/>
		<circle class="st16" cx="503" cy="297" r="1.5"/>
		<polygon class="st15" points="517.5,294.5 519.5,292.5 521.5,293.5 520.5,295.5 		"/>
		<line class="st15" x1="519.5" y1="294.5" x2="518.5" y2="291.5"/>
		<circle class="st17" cx="518" cy="290" r="1.5"/>
		<polygon class="st15" points="516.5,298.5 518.5,296.5 520.5,297.5 519.5,299.5 		"/>
		<line class="st15" x1="518.5" y1="298.5" x2="517.5" y2="295.5"/>
		<circle class="st17" cx="517" cy="294" r="1.5"/>
		<polygon class="st15" points="515.5,302.5 517.5,300.5 519.5,301.5 518.5,303.5 		"/>
		<line class="st15" x1="517.5" y1="302.5" x2="516.5" y2="299.5"/>
		<circle class="st17" cx="516" cy="298" r="1.5"/>
		<polygon class="st15" points="514.5,307.5 516.5,305.5 518.5,306.5 517.5,308.5 		"/>
		<line class="st15" x1="516.5" y1="307.5" x2="515.5" y2="304.5"/>
		<circle class="st17" cx="515" cy="303" r="1.5"/>
		<path class="st18" d="M531.5,288.5c0,0,12,1,14,0l-2,9c-9,2-15,0-15,0L531.5,288.5l6-4h12l1,10l-7,3"/>
		<line class="st19" x1="549.5" y1="284.5" x2="545.5" y2="288.5"/>
		<path class="st20" d="M543.7,287.2l1.6,0.1l1.1-1.2c0.3-0.3,0.3-0.7,0.2-1.1l-0.5-1.3l-1.5,1.7l-2.2-0.2l0.5,1.2
			C542.9,286.9,543.3,287.2,543.7,287.2z"/>
		<path class="st20" d="M544.4,283.7c-0.4,0-0.7,0.1-1,0.4l-1.1,1.2l1.8,0.2c0.2,0,0.5-0.1,0.7-0.3l1.2-1.4L544.4,283.7z"/>
		<line class="st21" x1="544.5" y1="285.5" x2="545.3" y2="287.4"/>
		<path class="st22" d="M537.7,287.2l1.6,0.1l1.1-1.2c0.3-0.3,0.3-0.7,0.2-1.1l-0.5-1.3l-1.5,1.7l-2.2-0.2l0.5,1.2
			C536.9,286.9,537.3,287.2,537.7,287.2z"/>
		<path class="st22" d="M538.4,283.7c-0.4,0-0.7,0.1-1,0.4l-1.1,1.2l1.8,0.2c0.2,0,0.5-0.1,0.7-0.3l1.2-1.4L538.4,283.7z"/>
		<line class="st23" x1="538.5" y1="285.5" x2="539.3" y2="287.4"/>
		<ellipse transform="matrix(0.2201 -0.9755 0.9755 0.2201 135.248 756.2197)" class="st24" cx="540.5" cy="293.5" rx="3" ry="2"/>
		<path class="st24" d="M534.5,290.5c-2,1-1,0-2,2s0,3,0,3s2,1,3-1s1-4,0-4S534.5,290.5,534.5,290.5z"/>
		<path class="st24" d="M536.5,309.5c-1,1-4,2-8,2c-2,0-2-2-2-2s-1-2,1-3s5-2,9,0C536.5,306.5,538.5,307.5,536.5,309.5z"/>
		<path class="st24" d="M530.5,301.5c1,2-1,6-1,6s3,1,4-1c0,0,1-3-1-6"/>
		<ellipse class="st24" cx="531" cy="298" rx="3.5" ry="4.5"/>
		<path class="st24" d="M527.5,296.5c0,0,5,1,7,0"/>
		<path class="st24" d="M528.5,294.5c0,0,3,1,5,0"/>
		<path class="st24" d="M527.5,298.5c0,0,5,1,7,0"/>
		<path class="st24" d="M528.5,300.5c0,0,3,1,5,0"/>
		<path class="st19" d="M550.5,299.5l16.1,0.7c0.1-0.3-2.1-5.7-2.1-5.7H556C556,294.5,552.5,296.5,550.5,299.5z"/>
		<line class="st19" x1="553.5" y1="296.5" x2="565.5" y2="297.5"/>
		<line class="st19" x1="550.5" y1="302.5" x2="564.5" y2="303.5"/>
		<line class="st19" x1="551.5" y1="305.5" x2="562.5" y2="306.5"/>
		<path class="st19" d="M566.5,300.5l-6,9H553c0,0-2.5-6-2.5-10"/>
		<path class="st25" d="M615.5,290.5v-2c0,0,0-2,2-2s2,1,2,2s0,2,0,2s0,1-1,1S615.5,291.5,615.5,290.5z"/>
		<path class="st26" d="M621.5,290.5v-2c0,0,0-2,2-2s2,1,2,2s0,2,0,2s0,1-1,1S621.5,291.5,621.5,290.5z"/>
		<path class="st26" d="M627.5,290.5v-2c0,0,0-2,2-2s2,1,2,2s0,2,0,2s0,1-1,1S627.5,291.5,627.5,290.5z"/>
		<path class="st26" d="M634.5,290.5v-2c0,0,0-2,2-2s2,1,2,2s0,2,0,2s0,1-1,1S634.5,291.5,634.5,290.5z"/>
		<path class="st26" d="M647.5,289.5v-2c0,0,0-2,2-2s2,1,2,2s0,2,0,2s0,1-1,1S647.5,290.5,647.5,289.5z"/>
		<path class="st25" d="M661.5,288.5v-2c0,0,0-2,2-2s2,1,2,2s0,2,0,2s0,1-1,1S661.5,289.5,661.5,288.5z"/>
		<path class="st25" d="M641.5,289.5v-2c0,0,0-2,2-2s2,1,2,2s0,2,0,2s0,1-1,1S641.5,290.5,641.5,289.5z"/>
		<path class="st26" d="M654.5,288.5v-2c0,0,0-2,2-2s2,1,2,2s0,2,0,2s0,1-1,1S654.5,289.5,654.5,288.5z"/>
		<path class="st26" d="M669.5,287.5v-2c0,0,0-2,2-2s2,1,2,2s0,2,0,2s0,1-1,1S669.5,288.5,669.5,287.5z"/>
		<path class="st25" d="M612.5,294.5v-2c0,0,0-2,2-2s2,1,2,2s0,2,0,2s0,1-1,1S612.5,295.5,612.5,294.5z"/>
		<path class="st26" d="M618.5,294.5v-2c0,0,0-2,2-2s2,1,2,2s0,2,0,2s0,1-1,1S618.5,295.5,618.5,294.5z"/>
		<path class="st26" d="M624.5,294.5v-2c0,0,0-2,2-2s2,1,2,2s0,2,0,2s0,1-1,1S624.5,295.5,624.5,294.5z"/>
		<path class="st25" d="M631.5,294.5v-2c0,0,0-2,2-2s2,1,2,2s0,2,0,2s0,1-1,1S631.5,295.5,631.5,294.5z"/>
		<path class="st26" d="M644.5,293.5v-2c0,0,0-2,2-2s2,1,2,2s0,2,0,2s0,1-1,1S644.5,294.5,644.5,293.5z"/>
		<path class="st25" d="M658.5,292.5v-2c0,0,0-2,2-2s2,1,2,2s0,2,0,2s0,1-1,1S658.5,293.5,658.5,292.5z"/>
		<path class="st26" d="M638.5,293.5v-2c0,0,0-2,2-2s2,1,2,2s0,2,0,2s0,1-1,1S638.5,294.5,638.5,293.5z"/>
		<path class="st26" d="M651.5,292.5v-2c0,0,0-2,2-2s2,1,2,2s0,2,0,2s0,1-1,1S651.5,293.5,651.5,292.5z"/>
		<path class="st26" d="M666.5,291.5v-2c0,0,0-2,2-2s2,1,2,2s0,2,0,2s0,1-1,1S666.5,292.5,666.5,291.5z"/>
		<path class="st25" d="M610.5,298.5v-2c0,0,0-2,2-2s2,1,2,2s0,2,0,2s0,1-1,1S610.5,299.5,610.5,298.5z"/>
		<path class="st26" d="M616.5,298.5v-2c0,0,0-2,2-2s2,1,2,2s0,2,0,2s0,1-1,1S616.5,299.5,616.5,298.5z"/>
		<path class="st25" d="M622.5,298.5v-2c0,0,0-2,2-2s2,1,2,2s0,2,0,2s0,1-1,1S622.5,299.5,622.5,298.5z"/>
		<path class="st26" d="M629.5,298.5v-2c0,0,0-2,2-2s2,1,2,2s0,2,0,2s0,1-1,1S629.5,299.5,629.5,298.5z"/>
		<path class="st26" d="M642.5,297.5v-2c0,0,0-2,2-2s2,1,2,2s0,2,0,2s0,1-1,1S642.5,298.5,642.5,297.5z"/>
		<path class="st25" d="M656.5,296.5v-2c0,0,0-2,2-2s2,1,2,2s0,2,0,2s0,1-1,1S656.5,297.5,656.5,296.5z"/>
		<path class="st25" d="M636.5,297.5v-2c0,0,0-2,2-2s2,1,2,2s0,2,0,2s0,1-1,1S636.5,298.5,636.5,297.5z"/>
		<path class="st26" d="M649.5,296.5v-2c0,0,0-2,2-2s2,1,2,2s0,2,0,2s0,1-1,1S649.5,297.5,649.5,296.5z"/>
		<path class="st26" d="M664.5,295.5v-2c0,0,0-2,2-2s2,1,2,2s0,2,0,2s0,1-1,1S664.5,296.5,664.5,295.5z"/>
		<path class="st25" d="M607.5,302.5v-2c0,0,0-2,2-2s2,1,2,2s0,2,0,2s0,1-1,1S607.5,303.5,607.5,302.5z"/>
		<path class="st26" d="M613.5,302.5v-2c0,0,0-2,2-2s2,1,2,2s0,2,0,2s0,1-1,1S613.5,303.5,613.5,302.5z"/>
		<path class="st26" d="M619.5,302.5v-2c0,0,0-2,2-2s2,1,2,2s0,2,0,2s0,1-1,1S619.5,303.5,619.5,302.5z"/>
		<path class="st26" d="M626.5,302.5v-2c0,0,0-2,2-2s2,1,2,2s0,2,0,2s0,1-1,1S626.5,303.5,626.5,302.5z"/>
		<path class="st25" d="M639.5,301.5v-2c0,0,0-2,2-2s2,1,2,2s0,2,0,2s0,1-1,1S639.5,302.5,639.5,301.5z"/>
		<path class="st25" d="M653.5,300.5v-2c0,0,0-2,2-2s2,1,2,2s0,2,0,2s0,1-1,1S653.5,301.5,653.5,300.5z"/>
		<path class="st26" d="M633.5,301.5v-2c0,0,0-2,2-2s2,1,2,2s0,2,0,2s0,1-1,1S633.5,302.5,633.5,301.5z"/>
		<path class="st26" d="M646.5,300.5v-2c0,0,0-2,2-2s2,1,2,2s0,2,0,2s0,1-1,1S646.5,301.5,646.5,300.5z"/>
		<path class="st26" d="M661.5,299.5v-2c0,0,0-2,2-2s2,1,2,2s0,2,0,2s0,1-1,1S661.5,300.5,661.5,299.5z"/>
		<path class="st26" d="M609.5,306.5v-2c0,0,0-2,2-2s2,1,2,2s0,2,0,2s0,1-1,1S609.5,307.5,609.5,306.5z"/>
		<path class="st26" d="M615.5,306.5v-2c0,0,0-2,2-2s2,1,2,2s0,2,0,2s0,1-1,1S615.5,307.5,615.5,306.5z"/>
		<path class="st26" d="M621.5,306.5v-2c0,0,0-2,2-2s2,1,2,2s0,2,0,2s0,1-1,1S621.5,307.5,621.5,306.5z"/>
		<path class="st26" d="M628.5,306.5v-2c0,0,0-2,2-2s2,1,2,2s0,2,0,2s0,1-1,1S628.5,307.5,628.5,306.5z"/>
		<path class="st26" d="M641.5,305.5v-2c0,0,0-2,2-2s2,1,2,2s0,2,0,2s0,1-1,1S641.5,306.5,641.5,305.5z"/>
		<path class="st26" d="M655.5,304.5v-2c0,0,0-2,2-2s2,1,2,2s0,2,0,2s0,1-1,1S655.5,305.5,655.5,304.5z"/>
		<path class="st26" d="M635.5,305.5v-2c0,0,0-2,2-2s2,1,2,2s0,2,0,2s0,1-1,1S635.5,306.5,635.5,305.5z"/>
		<path class="st25" d="M648.5,304.5v-2c0,0,0-2,2-2s2,1,2,2s0,2,0,2s0,1-1,1S648.5,305.5,648.5,304.5z"/>
		<circle class="st27" cx="272" cy="195" r="80"/>
		<circle class="st28" cx="329" cy="139" r="1.5"/>
		<circle class="st28" cx="338.5" cy="151.5" r="1.5"/>
		<circle class="st28" cx="345.5" cy="164.5" r="1.5"/>
		<circle class="st28" cx="350.5" cy="178.5" r="1.5"/>
		<circle class="st28" cx="352.5" cy="193.5" r="1.5"/>
		<circle class="st28" cx="350.5" cy="208.5" r="1.5"/>
		<circle class="st28" cx="346.5" cy="223.5" r="1.5"/>
		<circle class="st28" cx="339.5" cy="237.5" r="1.5"/>
		<circle class="st28" cx="328.5" cy="250.5" r="1.5"/>
		<circle class="st28" cx="314.5" cy="261.5" r="1.5"/>
		<circle class="st28" cx="299.5" cy="269.5" r="1.5"/>
		<circle class="st28" cx="278.5" cy="275.5" r="1.5"/>
		<circle class="st28" cx="259.5" cy="274.5" r="1.5"/>
		<circle class="st28" cx="243.5" cy="269.5" r="1.5"/>
		<circle class="st28" cx="230.5" cy="262.5" r="1.5"/>
		<circle class="st28" cx="217.5" cy="253.5" r="1.5"/>
		<circle class="st28" cx="206.5" cy="240.5" r="1.5"/>
		<circle class="st28" cx="198.5" cy="226.5" r="1.5"/>
		<circle class="st28" cx="193.5" cy="211.5" r="1.5"/>
		<circle class="st28" cx="191.5" cy="196.5" r="1.5"/>
		<circle class="st28" cx="193.5" cy="181.5" r="1.5"/>
		<circle class="st28" cx="197.5" cy="167.5" r="1.5"/>
		<circle class="st28" cx="203.5" cy="154.5" r="1.5"/>
		<circle class="st28" cx="211.5" cy="143.5" r="1.5"/>
		<circle class="st28" cx="222.5" cy="133.5" r="1.5"/>
		<circle class="st28" cx="233.5" cy="125.5" r="1.5"/>
		<circle class="st28" cx="245.5" cy="119.5" r="1.5"/>
		<circle class="st28" cx="258.5" cy="116.5" r="1.5"/>
		<circle class="st28" cx="272.5" cy="116.5" r="1.5"/>
		<circle class="st28" cx="287.5" cy="116.5" r="1.5"/>
		<circle class="st28" cx="301.5" cy="121.5" r="1.5"/>
		<circle class="st28" cx="316.5" cy="128.5" r="1.5"/>
		<circle class="st27" cx="461" cy="555" r="80"/>
		<circle class="st28" cx="518" cy="499" r="1.5"/>
		<circle class="st28" cx="527.5" cy="511.5" r="1.5"/>
		<circle class="st28" cx="534.5" cy="524.5" r="1.5"/>
		<circle class="st28" cx="539.5" cy="538.5" r="1.5"/>
		<circle class="st28" cx="541.5" cy="553.5" r="1.5"/>
		<circle class="st28" cx="539.5" cy="568.5" r="1.5"/>
		<circle class="st28" cx="535.5" cy="583.5" r="1.5"/>
		<circle class="st28" cx="528.5" cy="597.5" r="1.5"/>
		<circle class="st28" cx="517.5" cy="610.5" r="1.5"/>
		<circle class="st28" cx="503.5" cy="621.5" r="1.5"/>
		<circle class="st28" cx="488.5" cy="629.5" r="1.5"/>
		<circle class="st28" cx="467.5" cy="635.5" r="1.5"/>
		<circle class="st28" cx="448.5" cy="634.5" r="1.5"/>
		<circle class="st28" cx="432.5" cy="629.5" r="1.5"/>
		<circle class="st28" cx="419.5" cy="622.5" r="1.5"/>
		<circle class="st28" cx="406.5" cy="613.5" r="1.5"/>
		<circle class="st28" cx="395.5" cy="600.5" r="1.5"/>
		<circle class="st28" cx="387.5" cy="586.5" r="1.5"/>
		<circle class="st28" cx="382.5" cy="571.5" r="1.5"/>
		<circle class="st28" cx="380.5" cy="556.5" r="1.5"/>
		<circle class="st28" cx="382.5" cy="541.5" r="1.5"/>
		<circle class="st28" cx="386.5" cy="527.5" r="1.5"/>
		<circle class="st28" cx="392.5" cy="514.5" r="1.5"/>
		<circle class="st28" cx="400.5" cy="503.5" r="1.5"/>
		<circle class="st28" cx="411.5" cy="493.5" r="1.5"/>
		<circle class="st28" cx="422.5" cy="485.5" r="1.5"/>
		<circle class="st28" cx="434.5" cy="479.5" r="1.5"/>
		<circle class="st28" cx="447.5" cy="476.5" r="1.5"/>
		<circle class="st28" cx="461.5" cy="476.5" r="1.5"/>
		<circle class="st28" cx="476.5" cy="476.5" r="1.5"/>
		<circle class="st28" cx="490.5" cy="481.5" r="1.5"/>
		<circle class="st28" cx="505.5" cy="488.5" r="1.5"/>
		<path class="st29" d="M424.5,370.5c9.1,0,15.6,1.6,25,7c0,0-35,3-61,0c0,0,10.7-5.2,25-6.7"/>
		<path class="st30" d="M428.5,353.5c-1,7-9,10-9,10c0,5,7.5,9,7.5,9s-7.5,3-12.5,0c0,0-4-7-5-12c0,0,7-2,8-5"/>
		<path class="st31" d="M431.5,343.5c2-7,0-11,0-11c-8-30-1-35-1-35s10-6-7-14s-34-4-34-4s-10,5-3,17c5.2,9,6,29.1,6,38.7
			c0,3.5,1.2,6.9,3.3,9.7l1.7,2.2c0.8,1.1,1.8,2,2.9,2.7c3.3,2.1,11.1,5.9,24.1,6.7c18,1,28-11,28-11s8-8,0-10
			S431.5,343.5,431.5,343.5z"/>
		<path class="st32" d="M447.5,335.5c0,0-3-4-16-2"/>
		<path class="st32" d="M431.5,343.5c0,0-23.9,2-39-8"/>
		<path class="st29" d="M592.7,371.6c-9.1,0.2-15.5,2-24.8,7.7c0,0,35.1,2.1,61-1.6c0,0-10.8-4.9-25.2-6"/>
		<path class="st30" d="M588.3,354.7c1.2,7,9.3,9.8,9.3,9.8c0.1,5-7.3,9.2-7.3,9.2s7.6,2.8,12.5-0.3c0,0,3.8-7.1,4.7-12.1
			c0,0-7-1.8-8.1-4.8"/>
		<path class="st31" d="M585,344.8c-2.2-6.9-0.3-11-0.3-11c7.2-30.2,0.1-35,0.1-35s-10.2-5.7,6.6-14.2s33.9-4.9,33.9-4.9
			s10.1,4.7,3.4,16.9c-5,9.1-5.2,29.2-5,38.9c0.1,3.5-1,7-3,9.8l-1.6,2.3c-0.8,1.1-1.7,2-2.8,2.7c-3.3,2.2-10.9,6.2-23.9,7.3
			c-18,1.5-28.3-10.3-28.3-10.3s-8.2-7.8-0.3-10C571.7,335.2,585,344.8,585,344.8z"/>
		<path class="st32" d="M568.8,337.2c0,0,2.9-4.1,15.9-2.4"/>
		<path class="st32" d="M585,344.8c0,0,23.9,1.4,38.7-9"/>
		<path class="st3" d="M154.5,371.5c0,0,90-34,152,3L154.5,371.5z"/>
		<ellipse class="st33" cx="235" cy="356" rx="43.5" ry="5.5"/>
		<ellipse class="st33" cx="235" cy="356" rx="1.5" ry="0.5"/>
		<path class="st3" d="M380.5,692.5c0,0,90-34,152,3L380.5,692.5z"/>
		<ellipse class="st33" cx="461" cy="677" rx="43.5" ry="5.5"/>
		<ellipse class="st33" cx="461" cy="677" rx="1.5" ry="0.5"/>
		<path class="st3" d="M152,385.4c0,0,88.5,37.7,152,3.2L152,385.4z"/>
		
			<ellipse transform="matrix(4.106482e-02 -0.9992 0.9992 4.106482e-02 -181.6167 619.1843)" class="st33" cx="231.8" cy="404.2" rx="5.5" ry="43.5"/>
		
			<ellipse transform="matrix(4.106482e-02 -0.9992 0.9992 4.106482e-02 -181.6167 619.1843)" class="st33" cx="231.8" cy="404.2" rx="0.5" ry="1.5"/>
		<path class="st3" d="M380.8,707.3c0,0,89,36.6,152,1.5L380.8,707.3z"/>
		
			<ellipse transform="matrix(2.948139e-02 -0.9996 0.9996 2.948139e-02 -277.5846 1164.4272)" class="st33" cx="460.8" cy="725.2" rx="5.5" ry="43.5"/>
		
			<ellipse transform="matrix(2.948139e-02 -0.9996 0.9996 2.948139e-02 -277.5846 1164.4272)" class="st33" cx="460.8" cy="725.2" rx="0.5" ry="1.5"/>
		
			<linearGradient id="SVGID_6_" gradientUnits="userSpaceOnUse" x1="-367.1874" y1="1271.8467" x2="-251.5838" y2="1271.364" gradientTransform="matrix(0 -1 1 0 -660.4484 134.5191)">
			<stop  offset="0.1754" style="stop-color:#666666"/>
			<stop  offset="0.2796" style="stop-color:#737373"/>
			<stop  offset="0.4726" style="stop-color:#969696"/>
			<stop  offset="0.6122" style="stop-color:#B3B3B3"/>
			<stop  offset="1" style="stop-color:#E6E6E6"/>
		</linearGradient>
		<path class="st34" d="M699.1,505.1c-0.2,0.7-0.7,1.2-1.4,1.4c-8.9,3-76.6,21.4-135.9-1.4c-64-24.5-38-87.6-38-87.6
			s13-30.7,38-30.7c24.6,0,79.3-12,134.1,7.6c1.8,0.6,3.3,2.2,3.5,4.1C700.7,413.5,708.8,468.4,699.1,505.1z"/>
		
			<linearGradient id="SVGID_7_" gradientUnits="userSpaceOnUse" x1="-371.475" y1="1282.2986" x2="-292.7758" y2="1281.97" gradientTransform="matrix(0 -1 1 0 -660.4484 134.5191)">
			<stop  offset="0" style="stop-color:#666666"/>
			<stop  offset="0.3795" style="stop-color:#888888"/>
			<stop  offset="0.8045" style="stop-color:#B3B3B3"/>
		</linearGradient>
		<path class="st35" d="M563.1,506.5c-4.2-1.6-7.4-4.8-8.9-8.7c-4.7-12.7-13.7-43.6,2.3-60.1c16-16.5,92.1-12.5,124.5-10
			c8.3,0.6,14.7,6.9,14.8,14.4c0.1,15-0.4,39.4-3.6,54.7c-1.1,5.2-5.3,9.5-11,11.1c-12.9,3.7-38.9,9.6-68.3,7.8
			C586.6,514,571,509.5,563.1,506.5z"/>
		<path class="st36" d="M633.7,447.6c-12.6,2.8-25-5.5-25-5.5s15.1,5.2,24.3,3.4c0.7-0.1,1.3,0.2,1.4,0.8l0,0.2
			C634.7,446.9,634.3,447.5,633.7,447.6z"/>
		<path class="st37" d="M660.6,578.8c0,0,10.3-7,14.9-24.3"/>
		<path class="st37" d="M666.4,639.8c0,0,3.5-3.5,6.3-15"/>
		<path class="st38" d="M666.5,586.9v70.7c0,2.8-3.7,3.8-5.1,1.3l-12.6-22.3c-1-1.7-1.5-3.6-1.5-5.6v-69.9c0-3,4-4,5.4-1.4
			l12.3,21.9C666.1,583.2,666.5,585,666.5,586.9z"/>
		<path class="st39" d="M575.5,579.5v48.9c0,1.2-1.6,1.6-2.1,0.5l-4.4-9.5c-0.3-0.6-0.4-1.3-0.4-1.9v-48.9c0-1,1.3-1.3,1.7-0.4
			L575.5,579.5z"/>
		<path class="st39" d="M575.5,579.5h54l-5.1-10.8c-1.2-2.5-3.7-4.2-6.5-4.2h-45c-2,0-3.4,2.1-2.5,4L575.5,579.5z"/>
		<path class="st39" d="M629.5,579.5v48.6c0,3-2.4,5.4-5.4,5.4h-43.8c-2.6,0-4.8-2.1-4.8-4.8v-49.2H629.5z"/>
		<path class="st39" d="M575.5,608.7c0,0,48,1.1,54-1"/>
		<circle class="st39" cx="607.5" cy="615.5" r="1"/>
		<circle class="st39" cx="605.5" cy="601.5" r="1"/>
		<path class="st38" d="M284.8,687.7l-36.8,5.2c-3.5,0.8-6.9-1.3-6.9-4.2l-0.7-136.9c0-3.1,2.5-5.8,6.1-6.6l34.1-4.6
			c5.8-1.3,11.5,2.2,11.5,7.1l0.7,131.4C292.8,683.1,289.5,686.6,284.8,687.7z"/>
		<path class="st40" d="M282.5,612.4c0,0,3,1.6,2,5.6"/>
		<path class="st40" d="M257.8,561.4c0,0,10,2.1,15.9-0.3"/>
		<path class="st40" d="M257.9,564.7c0,0,10,2.9,15.9,0.5"/>
		<path class="st40" d="M257.9,568.7c0,0,10,2.1,14.9,0.5"/>
		<path class="st38" d="M336.5,680.9l-36.9,1.2c-3.5,0.8-6.8,1.7-6.9-1.2L292.1,544c0-3.1,2.5-8.8,6.1-9.6l34.1-0.6
			c5.7,1.1,11.4,4.4,11.5,7.1l0.7,131.4C344.6,676.3,341.3,679.8,336.5,680.9z"/>
		<path class="st40" d="M334.3,605.6c0,0,3,1.6,2,5.6"/>
		<path class="st40" d="M309.6,557.7c0,0,10-0.9,15.9-3.3"/>
		<path class="st40" d="M309.6,560.9c0,0,10-0.1,15.9-2.5"/>
		<path class="st40" d="M309.7,564.9c0,0,10-0.9,14.9-2.5"/>
		<polygon class="st38" points="337.1,535.7 242.7,549.2 209.8,545.4 307.8,531.1 		"/>
		<polygon class="st38" points="240.8,692.2 211.5,693 209.8,545.4 239.3,549.3 		"/>
		<ellipse class="st41" cx="130.5" cy="619" rx="3" ry="4.5"/>
		<path class="st38" d="M82,561.5H36.4c-8.2,0-14.8-6.6-14.8-14.8V380.5h75V547C96.5,555,90,561.5,82,561.5z"/>
		<path class="st42" d="M47,380.5c0,0-7.5,72,3.5,153c0,0,18,3,44-8"/>
		<path class="st42" d="M50.5,533.5c0,0-13,6.9-29-2.1"/>
		<polygon class="st39" points="200.5,694.5 201.5,642.5 162.5,622.5 162.5,681.5 		"/>
		<polygon class="st39" points="74.5,642.5 201.5,642.5 162.5,622.5 36.5,622.5 		"/>
		<polygon class="st39" points="73.5,694.5 74.5,642.5 36.5,622.5 36.5,681.5 		"/>
		<path class="st41" d="M143.5,624.5c0,0-12-6-26,0C117.5,624.5,130.5,629.5,143.5,624.5z"/>
		<polygon class="st43" points="119.5,637.5 159.5,637.5 148.5,631.5 111.5,631.5 		"/>
		<polygon class="st11" points="147.1,632 144.9,632.5 143.2,631.1 143.6,629.2 145.4,630.6 147.5,630 		"/>
		<polygon class="st11" points="145.8,628.6 147.5,630 145.4,630.6 143.6,629.2 		"/>
		<line class="st11" x1="145.4" y1="630.6" x2="144.9" y2="632.5"/>
		<polygon class="st11" points="150.1,633 147.9,633.5 146.2,632.1 146.6,630.2 148.4,631.6 150.5,631 		"/>
		<polygon class="st11" points="148.8,629.6 150.5,631 148.4,631.6 146.6,630.2 		"/>
		<line class="st11" x1="148.4" y1="631.6" x2="147.9" y2="633.5"/>
		<polygon class="st11" points="153.1,635 150.9,635.5 149.2,634.1 149.6,632.2 151.4,633.6 153.5,633 		"/>
		<polygon class="st11" points="151.8,631.6 153.5,633 151.4,633.6 149.6,632.2 		"/>
		<line class="st11" x1="151.4" y1="633.6" x2="150.9" y2="635.5"/>
		<polygon class="st11" points="157.1,637 154.9,637.5 153.2,636.1 153.6,634.2 155.4,635.6 157.5,635 		"/>
		<polygon class="st11" points="155.8,633.6 157.5,635 155.4,635.6 153.6,634.2 		"/>
		<line class="st11" x1="155.4" y1="635.6" x2="154.9" y2="637.5"/>
		<polygon class="st11" points="143.1,632 140.9,632.5 139.2,631.1 139.6,629.2 141.4,630.6 143.5,630 		"/>
		<polygon class="st11" points="141.8,628.6 143.5,630 141.4,630.6 139.6,629.2 		"/>
		<line class="st11" x1="141.4" y1="630.6" x2="140.9" y2="632.5"/>
		<polygon class="st11" points="146.1,634 143.9,634.5 142.2,633.1 142.6,631.2 144.4,632.6 146.5,632 		"/>
		<polygon class="st11" points="144.8,630.6 146.5,632 144.4,632.6 142.6,631.2 		"/>
		<line class="st11" x1="144.4" y1="632.6" x2="143.9" y2="634.5"/>
		<polygon class="st11" points="149.1,636 146.9,636.5 145.2,635.1 145.6,633.2 147.4,634.6 149.5,634 		"/>
		<polygon class="st11" points="147.8,632.6 149.5,634 147.4,634.6 145.6,633.2 		"/>
		<line class="st11" x1="147.4" y1="634.6" x2="146.9" y2="636.5"/>
		<polygon class="st11" points="139.1,632 136.9,632.5 135.2,631.1 135.6,629.2 137.4,630.6 139.5,630 		"/>
		<polygon class="st11" points="137.8,628.6 139.5,630 137.4,630.6 135.6,629.2 		"/>
		<line class="st11" x1="137.4" y1="630.6" x2="136.9" y2="632.5"/>
		<polygon class="st11" points="141.1,634 138.9,634.5 137.2,633.1 137.6,631.2 139.4,632.6 141.5,632 		"/>
		<polygon class="st11" points="139.8,630.6 141.5,632 139.4,632.6 137.6,631.2 		"/>
		<line class="st11" x1="139.4" y1="632.6" x2="138.9" y2="634.5"/>
		<polygon class="st11" points="135.1,633 132.9,633.5 131.2,632.1 131.6,630.2 133.4,631.6 135.5,631 		"/>
		<polygon class="st11" points="133.8,629.6 135.5,631 133.4,631.6 131.6,630.2 		"/>
		<line class="st11" x1="133.4" y1="631.6" x2="132.9" y2="633.5"/>
		<polygon class="st11" points="131.2,632.8 129.1,633.6 127.2,632.3 127.5,630.3 129.4,631.6 131.5,630.9 		"/>
		<polygon class="st11" points="129.6,629.6 131.5,630.9 129.4,631.6 127.5,630.3 		"/>
		<line class="st11" x1="129.4" y1="631.6" x2="129.1" y2="633.6"/>
		<polygon class="st11" points="133.2,634.8 131.1,635.6 129.2,634.3 129.5,632.3 131.4,633.6 133.5,632.9 		"/>
		<polygon class="st11" points="131.6,631.6 133.5,632.9 131.4,633.6 129.5,632.3 		"/>
		<line class="st11" x1="131.4" y1="633.6" x2="131.1" y2="635.6"/>
		<polygon class="st11" points="127.2,632.8 125.1,633.6 123.2,632.3 123.5,630.3 125.4,631.6 127.5,630.9 		"/>
		<polygon class="st11" points="125.6,629.6 127.5,630.9 125.4,631.6 123.5,630.3 		"/>
		<line class="st11" x1="125.4" y1="631.6" x2="125.1" y2="633.6"/>
		<polygon class="st11" points="129.2,634.8 127.1,635.6 125.2,634.3 125.5,632.3 127.4,633.6 129.5,632.9 		"/>
		<polygon class="st11" points="127.6,631.6 129.5,632.9 127.4,633.6 125.5,632.3 		"/>
		<line class="st11" x1="127.4" y1="633.6" x2="127.1" y2="635.6"/>
		<polygon class="st11" points="131.2,636.8 129.1,637.6 127.2,636.3 127.5,634.3 129.4,635.6 131.5,634.9 		"/>
		<polygon class="st11" points="129.6,633.6 131.5,634.9 129.4,635.6 127.5,634.3 		"/>
		<line class="st11" x1="129.4" y1="635.6" x2="129.1" y2="637.6"/>
		<polygon class="st11" points="123.2,632.8 121.1,633.6 119.2,632.3 119.5,630.3 121.4,631.6 123.5,630.9 		"/>
		<polygon class="st11" points="121.6,629.6 123.5,630.9 121.4,631.6 119.5,630.3 		"/>
		<line class="st11" x1="121.4" y1="631.6" x2="121.1" y2="633.6"/>
		<polygon class="st11" points="125.2,634.8 123.1,635.6 121.2,634.3 121.5,632.3 123.4,633.6 125.5,632.9 		"/>
		<polygon class="st11" points="123.6,631.6 125.5,632.9 123.4,633.6 121.5,632.3 		"/>
		<line class="st11" x1="123.4" y1="633.6" x2="123.1" y2="635.6"/>
		<polygon class="st11" points="127.2,636.8 125.1,637.6 123.2,636.3 123.5,634.3 125.4,635.6 127.5,634.9 		"/>
		<polygon class="st11" points="125.6,633.6 127.5,634.9 125.4,635.6 123.5,634.3 		"/>
		<line class="st11" x1="125.4" y1="635.6" x2="125.1" y2="637.6"/>
		<polygon class="st11" points="119.2,632.8 117.1,633.6 115.2,632.3 115.5,630.3 117.4,631.6 119.5,630.9 		"/>
		<polygon class="st11" points="117.6,629.6 119.5,630.9 117.4,631.6 115.5,630.3 		"/>
		<line class="st11" x1="117.4" y1="631.6" x2="117.1" y2="633.6"/>
		<polygon class="st11" points="121.2,634.8 119.1,635.6 117.2,634.3 117.5,632.3 119.4,633.6 121.5,632.9 		"/>
		<polygon class="st11" points="119.6,631.6 121.5,632.9 119.4,633.6 117.5,632.3 		"/>
		<line class="st11" x1="119.4" y1="633.6" x2="119.1" y2="635.6"/>
		<polygon class="st11" points="123.2,636.8 121.1,637.6 119.2,636.3 119.5,634.3 121.4,635.6 123.5,634.9 		"/>
		<polygon class="st11" points="121.6,633.6 123.5,634.9 121.4,635.6 119.5,634.3 		"/>
		<line class="st11" x1="121.4" y1="635.6" x2="121.1" y2="637.6"/>
		<polygon class="st11" points="135.2,636.8 133.1,637.6 131.2,636.3 131.5,634.3 133.4,635.6 135.5,634.9 		"/>
		<polygon class="st11" points="133.6,633.6 135.5,634.9 133.4,635.6 131.5,634.3 		"/>
		<line class="st11" x1="133.4" y1="635.6" x2="133.1" y2="637.6"/>
		<polygon class="st11" points="137.1,635 134.9,635.5 133.2,634.1 133.6,632.2 135.4,633.6 137.5,633 		"/>
		<polygon class="st11" points="135.8,631.6 137.5,633 135.4,633.6 133.6,632.2 		"/>
		<line class="st11" x1="135.4" y1="633.6" x2="134.9" y2="635.5"/>
		<polygon class="st11" points="140.1,637 137.9,637.5 136.2,636.1 136.6,634.2 138.4,635.6 140.5,635 		"/>
		<polygon class="st11" points="138.8,633.6 140.5,635 138.4,635.6 136.6,634.2 		"/>
		<line class="st11" x1="138.4" y1="635.6" x2="137.9" y2="637.5"/>
		<polygon class="st11" points="144.1,636 141.9,636.5 140.2,635.1 140.6,633.2 142.4,634.6 144.5,634 		"/>
		<polygon class="st11" points="142.8,632.6 144.5,634 142.4,634.6 140.6,633.2 		"/>
		<line class="st11" x1="142.4" y1="634.6" x2="141.9" y2="636.5"/>
		<g>
			<g>
				<path class="st44" d="M384.9,386.9c0,0,17.2,32.4,43.1,30.4s28-29,28-29L384.9,386.9z"/>
				<polyline class="st45" points="418.4,399.7 422.5,401.5 418.7,407.6 423.8,409.5 				"/>
				<path class="st46" d="M417,395.4l-5.5-2.5c-1.8-0.8-3.8,0-4.6,1.7l0,0c-0.8,1.8,0,3.8,1.7,4.6l5.5,2.5c1.8,0.8,3.8,0,4.6-1.7
					l0,0C419.5,398.3,418.8,396.2,417,395.4z"/>
				<path class="st47" d="M447.1,445.6c0,0-7,1.3-6.1-3.8c0,0,7-0.3,5.9-3.2c0,0,0.7-7-11.1-1.6"/>
				<path class="st44" d="M440,441.9c-1.4-12,2.7-29.5,2.7-29.5l-11.1,4.8c0,0-1,15,3.4,24.9"/>
				<polygon class="st44" points="447.3,449.6 438.2,448 430,442.3 444,441.7 				"/>
				<path class="st48" d="M438.1,446c0,0-7,1.3-6.1-3.8c0,0,7-0.3,5.9-3.2c0,0,0.7-7-11.1-1.6"/>
			</g>
			<line class="st49" x1="408.3" y1="412.2" x2="405.5" y2="422.5"/>
			<path class="st50" d="M411.5,422.5c0,0-9,3-13-3s-6,8,0,8S411.5,422.5,411.5,422.5z"/>
		</g>
		
			<linearGradient id="SVGID_8_" gradientUnits="userSpaceOnUse" x1="142.96" y1="831.53" x2="270.96" y2="831.53" gradientTransform="matrix(-1 0 0 1 413 0)">
			<stop  offset="0" style="stop-color:#666666"/>
			<stop  offset="2.922318e-03" style="stop-color:#666666"/>
			<stop  offset="0.3179" style="stop-color:#4B4B4B"/>
			<stop  offset="0.5982" style="stop-color:#3B3B3B"/>
			<stop  offset="0.8136" style="stop-color:#353535"/>
		</linearGradient>
		<path class="st51" d="M142,910h128V773c0-11-9-20-20-20h-88c-11,0-20,9-20,20V910z"/>
		
			<linearGradient id="SVGID_9_" gradientUnits="userSpaceOnUse" x1="445.96" y1="831.53" x2="573.96" y2="831.53" gradientTransform="matrix(-1 0 0 1 1021 0)">
			<stop  offset="0" style="stop-color:#808080"/>
			<stop  offset="9.049485e-02" style="stop-color:#707070"/>
			<stop  offset="0.2671" style="stop-color:#565656"/>
			<stop  offset="0.4494" style="stop-color:#444444"/>
			<stop  offset="0.6395" style="stop-color:#393939"/>
			<stop  offset="0.8497" style="stop-color:#353535"/>
		</linearGradient>
		<path class="st52" d="M447,910h128V773c0-11-9-20-20-20h-88c-11,0-20,9-20,20V910z"/>
		<rect x="270" y="874" class="st53" width="177" height="36"/>
		<rect x="270" y="857" class="st54" width="177" height="17"/>
		<polygon class="st55" points="275.6,867.5 277.7,868.2 279.6,866.9 279.3,864.9 277.4,866.2 275.3,865.5 		"/>
		<polygon class="st55" points="277.1,864.2 275.3,865.5 277.4,866.2 279.3,864.9 		"/>
		<line class="st55" x1="277.4" y1="866.2" x2="277.7" y2="868.2"/>
		<polygon class="st55" points="275.2,871.6 277.4,872.3 279.2,871 278.9,869 277.1,870.3 274.9,869.6 		"/>
		<polygon class="st55" points="276.8,868.3 274.9,869.6 277.1,870.3 278.9,869 		"/>
		<line class="st55" x1="277.1" y1="870.3" x2="277.4" y2="872.3"/>
		<polygon class="st55" points="279.4,872 281.5,872.6 283.3,871.3 283,869.4 281.2,870.7 279,870 		"/>
		<g>
			<polygon class="st55" points="280.9,868.7 279,870 281.2,870.7 283,869.4 			"/>
			<line class="st55" x1="281.2" y1="870.7" x2="281.5" y2="872.6"/>
		</g>
		<polygon class="st55" points="279.7,867.9 281.9,868.5 283.7,867.2 283.4,865.3 281.5,866.6 279.4,865.9 		"/>
		<polygon class="st55" points="281.2,864.6 279.4,865.9 281.5,866.6 283.4,865.3 		"/>
		<line class="st55" x1="281.5" y1="866.6" x2="281.9" y2="868.5"/>
		<polygon class="st55" points="283.8,868.2 286,868.9 287.8,867.6 287.5,865.6 285.6,866.9 283.5,866.2 		"/>
		<polygon class="st55" points="285.3,864.9 283.5,866.2 285.6,866.9 287.5,865.6 		"/>
		<line class="st55" x1="285.6" y1="866.9" x2="286" y2="868.9"/>
		<polygon class="st55" points="287.9,868.6 290.1,869.3 291.9,868 291.6,866 289.8,867.3 287.6,866.6 		"/>
		<polygon class="st55" points="289.4,865.3 287.6,866.6 289.8,867.3 291.6,866 		"/>
		<line class="st55" x1="289.8" y1="867.3" x2="290.1" y2="869.3"/>
		<g>
			<polygon class="st55" points="291.9,868 294,868.6 295.8,867.3 295.5,865.4 293.7,866.7 291.6,866 			"/>
			<polygon class="st55" points="293.4,864.7 291.6,866 293.7,866.7 295.5,865.4 			"/>
			<line class="st55" x1="293.7" y1="866.7" x2="294" y2="868.6"/>
		</g>
		<g>
			<polygon class="st55" points="284.1,871.5 286.3,872.2 288.1,870.9 287.8,868.9 285.9,870.2 283.8,869.6 			"/>
			<polygon class="st55" points="285.6,868.3 283.8,869.6 285.9,870.2 287.8,868.9 			"/>
			<line class="st55" x1="285.9" y1="870.2" x2="286.3" y2="872.2"/>
		</g>
		<g>
			<polygon class="st55" points="288.1,871.2 290.2,871.9 292.1,870.6 291.8,868.6 289.9,869.9 287.8,869.3 			"/>
			<polygon class="st55" points="289.6,868 287.8,869.3 289.9,869.9 291.8,868.6 			"/>
			<line class="st55" x1="289.9" y1="869.9" x2="290.2" y2="871.9"/>
		</g>
		<g>
			<polygon class="st55" points="293.1,870.9 295.2,871.5 297.1,870.2 296.7,868.3 294.9,869.6 292.8,868.9 			"/>
			<polygon class="st55" points="294.6,867.6 292.8,868.9 294.9,869.6 296.7,868.3 			"/>
			<line class="st55" x1="294.9" y1="869.6" x2="295.2" y2="871.5"/>
		</g>
		<polygon class="st55" points="298.6,867.5 300.7,868.2 302.6,866.9 302.3,864.9 300.4,866.2 298.3,865.5 		"/>
		<polygon class="st55" points="300.1,864.2 298.3,865.5 300.4,866.2 302.3,864.9 		"/>
		<line class="st55" x1="300.4" y1="866.2" x2="300.7" y2="868.2"/>
		<polygon class="st55" points="298.2,871.6 300.4,872.3 302.2,871 301.9,869 300.1,870.3 297.9,869.6 		"/>
		<polygon class="st55" points="299.8,868.3 297.9,869.6 300.1,870.3 301.9,869 		"/>
		<line class="st55" x1="300.1" y1="870.3" x2="300.4" y2="872.3"/>
		<polygon class="st55" points="302.4,872 304.5,872.6 306.3,871.3 306,869.4 304.2,870.7 302,870 		"/>
		<g>
			<polygon class="st55" points="303.9,868.7 302,870 304.2,870.7 306,869.4 			"/>
			<line class="st55" x1="304.2" y1="870.7" x2="304.5" y2="872.6"/>
		</g>
		<polygon class="st55" points="302.7,867.9 304.9,868.5 306.7,867.2 306.4,865.3 304.5,866.6 302.4,865.9 		"/>
		<polygon class="st55" points="304.2,864.6 302.4,865.9 304.5,866.6 306.4,865.3 		"/>
		<line class="st55" x1="304.5" y1="866.6" x2="304.9" y2="868.5"/>
		<polygon class="st55" points="306.8,868.2 309,868.9 310.8,867.6 310.5,865.6 308.6,866.9 306.5,866.2 		"/>
		<polygon class="st55" points="308.3,864.9 306.5,866.2 308.6,866.9 310.5,865.6 		"/>
		<line class="st55" x1="308.6" y1="866.9" x2="309" y2="868.9"/>
		<polygon class="st55" points="310.9,868.6 313.1,869.3 314.9,868 314.6,866 312.8,867.3 310.6,866.6 		"/>
		<polygon class="st55" points="312.4,865.3 310.6,866.6 312.8,867.3 314.6,866 		"/>
		<line class="st55" x1="312.8" y1="867.3" x2="313.1" y2="869.3"/>
		<g>
			<polygon class="st55" points="314.9,868 317,868.6 318.8,867.3 318.5,865.4 316.7,866.7 314.6,866 			"/>
			<polygon class="st55" points="316.4,864.7 314.6,866 316.7,866.7 318.5,865.4 			"/>
			<line class="st55" x1="316.7" y1="866.7" x2="317" y2="868.6"/>
		</g>
		<g>
			<polygon class="st55" points="307.1,871.5 309.3,872.2 311.1,870.9 310.8,868.9 308.9,870.2 306.8,869.6 			"/>
			<polygon class="st55" points="308.6,868.3 306.8,869.6 308.9,870.2 310.8,868.9 			"/>
			<line class="st55" x1="308.9" y1="870.2" x2="309.3" y2="872.2"/>
		</g>
		<g>
			<polygon class="st55" points="311.1,871.2 313.2,871.9 315.1,870.6 314.8,868.6 312.9,869.9 310.8,869.3 			"/>
			<polygon class="st55" points="312.6,868 310.8,869.3 312.9,869.9 314.8,868.6 			"/>
			<line class="st55" x1="312.9" y1="869.9" x2="313.2" y2="871.9"/>
		</g>
		<g>
			<polygon class="st55" points="316.1,870.9 318.2,871.5 320.1,870.2 319.7,868.3 317.9,869.6 315.8,868.9 			"/>
			<polygon class="st55" points="317.6,867.6 315.8,868.9 317.9,869.6 319.7,868.3 			"/>
			<line class="st55" x1="317.9" y1="869.6" x2="318.2" y2="871.5"/>
		</g>
		<polygon class="st55" points="378.6,866.5 380.7,867.2 382.6,865.9 382.3,863.9 380.4,865.2 378.3,864.5 		"/>
		<polygon class="st55" points="380.1,863.2 378.3,864.5 380.4,865.2 382.3,863.9 		"/>
		<line class="st55" x1="380.4" y1="865.2" x2="380.7" y2="867.2"/>
		<polygon class="st55" points="378.2,870.6 380.4,871.3 382.2,870 381.9,868 380.1,869.3 377.9,868.6 		"/>
		<polygon class="st55" points="379.8,867.3 377.9,868.6 380.1,869.3 381.9,868 		"/>
		<line class="st55" x1="380.1" y1="869.3" x2="380.4" y2="871.3"/>
		<polygon class="st55" points="382.4,871 384.5,871.6 386.3,870.3 386,868.4 384.2,869.7 382,869 		"/>
		<g>
			<polygon class="st55" points="383.9,867.7 382,869 384.2,869.7 386,868.4 			"/>
			<line class="st55" x1="384.2" y1="869.7" x2="384.5" y2="871.6"/>
		</g>
		<polygon class="st55" points="382.7,866.9 384.9,867.5 386.7,866.2 386.4,864.3 384.5,865.6 382.4,864.9 		"/>
		<polygon class="st55" points="384.2,863.6 382.4,864.9 384.5,865.6 386.4,864.3 		"/>
		<line class="st55" x1="384.5" y1="865.6" x2="384.9" y2="867.5"/>
		<polygon class="st55" points="386.8,867.2 389,867.9 390.8,866.6 390.5,864.6 388.6,865.9 386.5,865.2 		"/>
		<polygon class="st55" points="388.3,863.9 386.5,865.2 388.6,865.9 390.5,864.6 		"/>
		<line class="st55" x1="388.6" y1="865.9" x2="389" y2="867.9"/>
		<polygon class="st55" points="390.9,867.6 393.1,868.3 394.9,867 394.6,865 392.8,866.3 390.6,865.6 		"/>
		<polygon class="st55" points="392.4,864.3 390.6,865.6 392.8,866.3 394.6,865 		"/>
		<line class="st55" x1="392.8" y1="866.3" x2="393.1" y2="868.3"/>
		<g>
			<polygon class="st55" points="394.9,867 397,867.6 398.8,866.3 398.5,864.4 396.7,865.7 394.6,865 			"/>
			<polygon class="st55" points="396.4,863.7 394.6,865 396.7,865.7 398.5,864.4 			"/>
			<line class="st55" x1="396.7" y1="865.7" x2="397" y2="867.6"/>
		</g>
		<g>
			<polygon class="st55" points="387.1,870.5 389.3,871.2 391.1,869.9 390.8,867.9 388.9,869.2 386.8,868.6 			"/>
			<polygon class="st55" points="388.6,867.3 386.8,868.6 388.9,869.2 390.8,867.9 			"/>
			<line class="st55" x1="388.9" y1="869.2" x2="389.3" y2="871.2"/>
		</g>
		<g>
			<polygon class="st55" points="391.1,870.2 393.2,870.9 395.1,869.6 394.8,867.6 392.9,868.9 390.8,868.3 			"/>
			<polygon class="st55" points="392.6,867 390.8,868.3 392.9,868.9 394.8,867.6 			"/>
			<line class="st55" x1="392.9" y1="868.9" x2="393.2" y2="870.9"/>
		</g>
		<g>
			<polygon class="st55" points="396.1,869.9 398.2,870.5 400.1,869.2 399.7,867.3 397.9,868.6 395.8,867.9 			"/>
			<polygon class="st55" points="397.6,866.6 395.8,867.9 397.9,868.6 399.7,867.3 			"/>
			<line class="st55" x1="397.9" y1="868.6" x2="398.2" y2="870.5"/>
		</g>
		<polygon class="st55" points="403.6,866.5 405.7,867.2 407.6,865.9 407.3,863.9 405.4,865.2 403.3,864.5 		"/>
		<polygon class="st55" points="405.1,863.2 403.3,864.5 405.4,865.2 407.3,863.9 		"/>
		<line class="st55" x1="405.4" y1="865.2" x2="405.7" y2="867.2"/>
		<polygon class="st55" points="403.2,870.6 405.4,871.3 407.2,870 406.9,868 405.1,869.3 402.9,868.6 		"/>
		<polygon class="st55" points="404.8,867.3 402.9,868.6 405.1,869.3 406.9,868 		"/>
		<line class="st55" x1="405.1" y1="869.3" x2="405.4" y2="871.3"/>
		<polygon class="st55" points="407.4,871 409.5,871.6 411.3,870.3 411,868.4 409.2,869.7 407,869 		"/>
		<g>
			<polygon class="st55" points="408.9,867.7 407,869 409.2,869.7 411,868.4 			"/>
			<line class="st55" x1="409.2" y1="869.7" x2="409.5" y2="871.6"/>
		</g>
		<polygon class="st55" points="407.7,866.9 409.9,867.5 411.7,866.2 411.4,864.3 409.5,865.6 407.4,864.9 		"/>
		<polygon class="st55" points="409.2,863.6 407.4,864.9 409.5,865.6 411.4,864.3 		"/>
		<line class="st55" x1="409.5" y1="865.6" x2="409.9" y2="867.5"/>
		<polygon class="st55" points="411.8,867.2 414,867.9 415.8,866.6 415.5,864.6 413.6,865.9 411.5,865.2 		"/>
		<polygon class="st55" points="413.3,863.9 411.5,865.2 413.6,865.9 415.5,864.6 		"/>
		<line class="st55" x1="413.6" y1="865.9" x2="414" y2="867.9"/>
		<polygon class="st55" points="415.9,867.6 418.1,868.3 419.9,867 419.6,865 417.8,866.3 415.6,865.6 		"/>
		<polygon class="st55" points="417.4,864.3 415.6,865.6 417.8,866.3 419.6,865 		"/>
		<line class="st55" x1="417.8" y1="866.3" x2="418.1" y2="868.3"/>
		<g>
			<polygon class="st55" points="412.1,870.5 414.3,871.2 416.1,869.9 415.8,867.9 413.9,869.2 411.8,868.6 			"/>
			<polygon class="st55" points="413.6,867.3 411.8,868.6 413.9,869.2 415.8,867.9 			"/>
			<line class="st55" x1="413.9" y1="869.2" x2="414.3" y2="871.2"/>
		</g>
		<g>
			<polygon class="st55" points="416.1,870.2 418.2,870.9 420.1,869.6 419.8,867.6 417.9,868.9 415.8,868.3 			"/>
			<polygon class="st55" points="417.6,867 415.8,868.3 417.9,868.9 419.8,867.6 			"/>
			<line class="st55" x1="417.9" y1="868.9" x2="418.2" y2="870.9"/>
		</g>
		<g>
			<path class="st12" d="M280.4,856.2l-0.1,4.6c0,0,0,0.4-0.4,0.7c-0.4,0.4-6.7,1.5-6.3-1.9V857"/>
			<path class="st12" d="M274.3,855c0,0,1.5-1.5,4.8,0c3.4,1.5-1.1,2.6-1.1,2.6s-4.5,0.4-4.5-0.7C273.5,855.7,273.9,855.4,274.3,855
				z"/>
		</g>
		<g>
			<path class="st12" d="M290.4,857.2l-0.1,4.6c0,0,0,0.4-0.4,0.7c-0.4,0.4-6.7,1.5-6.3-1.9V858"/>
			<path class="st12" d="M284.3,856c0,0,1.5-1.5,4.8,0c3.4,1.5-1.1,2.6-1.1,2.6s-4.5,0.4-4.5-0.7C283.5,856.7,283.9,856.4,284.3,856
				z"/>
		</g>
		<g>
			<path class="st12" d="M299.4,856.2l-0.1,4.6c0,0,0,0.4-0.4,0.7c-0.4,0.4-6.7,1.5-6.3-1.9V857"/>
			<path class="st12" d="M293.3,855c0,0,1.5-1.5,4.8,0c3.4,1.5-1.1,2.6-1.1,2.6s-4.5,0.4-4.5-0.7C292.5,855.7,292.9,855.4,293.3,855
				z"/>
		</g>
		<g>
			<path class="st12" d="M309.4,856.2l-0.1,4.6c0,0,0,0.4-0.4,0.7c-0.4,0.4-6.7,1.5-6.3-1.9V857"/>
			<path class="st12" d="M303.3,855c0,0,1.5-1.5,4.8,0c3.4,1.5-1.1,2.6-1.1,2.6s-4.5,0.4-4.5-0.7C302.5,855.7,302.9,855.4,303.3,855
				z"/>
		</g>
		<g>
			<path class="st13" d="M381.4,856.2l-0.1,4.6c0,0,0,0.4-0.4,0.7c-0.4,0.4-6.7,1.5-6.3-1.9V857"/>
			<path class="st13" d="M375.3,855c0,0,1.5-1.5,4.8,0c3.4,1.5-1.1,2.6-1.1,2.6s-4.5,0.4-4.5-0.7C374.5,855.7,374.9,855.4,375.3,855
				z"/>
		</g>
		<g>
			<path class="st13" d="M390.4,856.2l-0.1,4.6c0,0,0,0.4-0.4,0.7c-0.4,0.4-6.7,1.5-6.3-1.9V857"/>
			<path class="st13" d="M384.3,855c0,0,1.5-1.5,4.8,0c3.4,1.5-1.1,2.6-1.1,2.6s-4.5,0.4-4.5-0.7C383.5,855.7,383.9,855.4,384.3,855
				z"/>
		</g>
		<g>
			<path class="st13" d="M399.4,856.2l-0.1,4.6c0,0,0,0.4-0.4,0.7c-0.4,0.4-6.7,1.5-6.3-1.9V857"/>
			<path class="st13" d="M393.3,855c0,0,1.5-1.5,4.8,0c3.4,1.5-1.1,2.6-1.1,2.6s-4.5,0.4-4.5-0.7C392.5,855.7,392.9,855.4,393.3,855
				z"/>
		</g>
		<g>
			<path class="st13" d="M408.4,856.2l-0.1,4.6c0,0,0,0.4-0.4,0.7c-0.4,0.4-6.7,1.5-6.3-1.9V857"/>
			<path class="st13" d="M402.3,855c0,0,1.5-1.5,4.8,0c3.4,1.5-1.1,2.6-1.1,2.6s-4.5,0.4-4.5-0.7C401.5,855.7,401.9,855.4,402.3,855
				z"/>
		</g>
		<g>
			<path class="st14" d="M330.4,856.2l-0.1,4.6c0,0,0,0.4-0.4,0.7c-0.4,0.4-6.7,1.5-6.3-1.9V857"/>
			<path class="st14" d="M324.3,855c0,0,1.5-1.5,4.8,0c3.4,1.5-1.1,2.6-1.1,2.6s-4.5,0.4-4.5-0.7C323.5,855.7,323.9,855.4,324.3,855
				z"/>
		</g>
		<g>
			<path class="st14" d="M340.4,856.2l-0.1,4.6c0,0,0,0.4-0.4,0.7c-0.4,0.4-6.7,1.5-6.3-1.9V857"/>
			<path class="st14" d="M334.3,855c0,0,1.5-1.5,4.8,0c3.4,1.5-1.1,2.6-1.1,2.6s-4.5,0.4-4.5-0.7C333.5,855.7,333.9,855.4,334.3,855
				z"/>
		</g>
		<g>
			<path class="st14" d="M350.4,856.2l-0.1,4.6c0,0,0,0.4-0.4,0.7c-0.4,0.4-6.7,1.5-6.3-1.9V857"/>
			<path class="st14" d="M344.3,855c0,0,1.5-1.5,4.8,0c3.4,1.5-1.1,2.6-1.1,2.6s-4.5,0.4-4.5-0.7C343.5,855.7,343.9,855.4,344.3,855
				z"/>
		</g>
		<g>
			<path class="st14" d="M359.4,856.2l-0.1,4.6c0,0,0,0.4-0.4,0.7c-0.4,0.4-6.7,1.5-6.3-1.9V857"/>
			<path class="st14" d="M353.3,855c0,0,1.5-1.5,4.8,0c3.4,1.5-1.1,2.6-1.1,2.6s-4.5,0.4-4.5-0.7C352.5,855.7,352.9,855.4,353.3,855
				z"/>
		</g>
		<g>
			<polygon class="st56" points="368.5,865.5 370.5,863.5 372.5,864.5 371.5,866.5 			"/>
			<line class="st56" x1="370.5" y1="865.5" x2="369.5" y2="862.5"/>
			<circle class="st16" cx="369" cy="861" r="1.5"/>
		</g>
		<g>
			<polygon class="st56" points="362.5,867.5 364.5,865.5 366.5,866.5 365.5,868.5 			"/>
			<line class="st56" x1="364.5" y1="867.5" x2="363.5" y2="864.5"/>
			<circle class="st16" cx="363" cy="863" r="1.5"/>
		</g>
		<g>
			<polygon class="st56" points="356.5,866.5 358.5,864.5 360.5,865.5 359.5,867.5 			"/>
			<line class="st56" x1="358.5" y1="866.5" x2="357.5" y2="863.5"/>
			<circle class="st16" cx="357" cy="862" r="1.5"/>
		</g>
		<g>
			<polygon class="st56" points="345.5,867.5 347.5,865.5 349.5,866.5 348.5,868.5 			"/>
			<line class="st56" x1="347.5" y1="867.5" x2="346.5" y2="864.5"/>
			<circle class="st16" cx="346" cy="863" r="1.5"/>
		</g>
		<g>
			<polygon class="st56" points="335.5,867.5 337.5,865.5 339.5,866.5 338.5,868.5 			"/>
			<line class="st56" x1="337.5" y1="867.5" x2="336.5" y2="864.5"/>
			<circle class="st16" cx="336" cy="863" r="1.5"/>
		</g>
		<g>
			<polygon class="st56" points="330.5,869.5 332.5,867.5 334.5,868.5 333.5,870.5 			"/>
			<line class="st56" x1="332.5" y1="869.5" x2="331.5" y2="866.5"/>
			<circle class="st16" cx="331" cy="865" r="1.5"/>
		</g>
		<g>
			<polygon class="st56" points="323.5,867.5 325.5,865.5 327.5,866.5 326.5,868.5 			"/>
			<line class="st56" x1="325.5" y1="867.5" x2="324.5" y2="864.5"/>
			<circle class="st16" cx="324" cy="863" r="1.5"/>
		</g>
		<g>
			<polygon class="st56" points="340.5,869.5 342.5,867.5 344.5,868.5 343.5,870.5 			"/>
			<line class="st56" x1="342.5" y1="869.5" x2="341.5" y2="866.5"/>
			<circle class="st16" cx="341" cy="865" r="1.5"/>
		</g>
		<g>
			<polygon class="st56" points="350.5,869.5 352.5,867.5 354.5,868.5 353.5,870.5 			"/>
			<line class="st56" x1="352.5" y1="869.5" x2="351.5" y2="866.5"/>
			<circle class="st16" cx="351" cy="865" r="1.5"/>
		</g>
		<path class="st56" d="M427.1,850.6c0,0,12,1,14,0l-2,9c-9,2-15,0-15,0L427.1,850.6l6-4h12l1,10l-7,3"/>
		<line class="st57" x1="445.1" y1="846.6" x2="441.1" y2="850.6"/>
		<path class="st20" d="M439.2,849.3l1.6,0.1l1.1-1.2c0.3-0.3,0.3-0.7,0.2-1.1l-0.5-1.3l-1.5,1.7l-2.2-0.2l0.5,1.2
			C438.5,849,438.8,849.3,439.2,849.3z"/>
		<path class="st20" d="M439.9,845.8c-0.4,0-0.7,0.1-1,0.4l-1.1,1.2l1.8,0.2c0.2,0,0.5-0.1,0.7-0.3l1.2-1.4L439.9,845.8z"/>
		<line class="st21" x1="440.1" y1="847.6" x2="440.8" y2="849.5"/>
		<path class="st22" d="M433.2,849.3l1.6,0.1l1.1-1.2c0.3-0.3,0.3-0.7,0.2-1.1l-0.5-1.3l-1.5,1.7l-2.2-0.2l0.5,1.2
			C432.5,849,432.8,849.3,433.2,849.3z"/>
		<path class="st22" d="M433.9,845.8c-0.4,0-0.7,0.1-1,0.4l-1.1,1.2l1.8,0.2c0.2,0,0.5-0.1,0.7-0.3l1.2-1.4L433.9,845.8z"/>
		<line class="st23" x1="434.1" y1="847.6" x2="434.8" y2="849.5"/>
		
			<ellipse transform="matrix(0.2201 -0.9755 0.9755 0.2201 -494.544 1092.6864)" class="st58" cx="436.1" cy="855.6" rx="3" ry="2"/>
		<path class="st58" d="M430.1,852.6c-2,1-1,0-2,2s0,3,0,3s2,1,3-1s1-4,0-4S430.1,852.6,430.1,852.6z"/>
		<path class="st58" d="M432.1,871.6c-1,1-4,2-8,2c-2,0-2-2-2-2s-1-2,1-3s5-2,9,0C432.1,868.6,434.1,869.6,432.1,871.6z"/>
		<path class="st58" d="M426.1,863.6c1,2-1,6-1,6s3,1,4-1c0,0,1-3-1-6"/>
		<ellipse class="st58" cx="426.6" cy="860.1" rx="3.5" ry="4.5"/>
		<path class="st58" d="M423.1,858.6c0,0,5,1,7,0"/>
		<path class="st58" d="M424.1,856.6c0,0,3,1,5,0"/>
		<path class="st58" d="M423.1,860.6c0,0,5,1,7,0"/>
		<path class="st58" d="M424.1,862.6c0,0,3,1,5,0"/>
	</g>
</g>
</svg>
